<svg class="animated" id="freepik_stories-online-groceries" xmlns="http://www.w3.org/2000/svg" viewBox="0 0 500 500" version="1.1" xmlns:xlink="http://www.w3.org/1999/xlink" xmlns:svgjs="http://svgjs.com/svgjs"><style>svg#freepik_stories-online-groceries:not(.animated) .animable {opacity: 0;}svg#freepik_stories-online-groceries.animated #freepik--background-complete--inject-82 {animation: 1s 1 forwards cubic-bezier(.36,-0.01,.5,1.38) zoomIn,1.5s Infinite  linear floating;animation-delay: 0s,1s;}svg#freepik_stories-online-groceries.animated #freepik--Shadows--inject-82 {animation: 1s 1 forwards cubic-bezier(.36,-0.01,.5,1.38) zoomIn;animation-delay: 0s;}svg#freepik_stories-online-groceries.animated #freepik--Floor--inject-82 {animation: 1s 1 forwards cubic-bezier(.36,-0.01,.5,1.38) zoomIn;animation-delay: 0s;}svg#freepik_stories-online-groceries.animated #freepik--Device--inject-82 {animation: 1s 1 forwards cubic-bezier(.36,-0.01,.5,1.38) fadeIn;animation-delay: 0s;}svg#freepik_stories-online-groceries.animated #freepik--Character--inject-82 {animation: 1s 1 forwards cubic-bezier(.36,-0.01,.5,1.38) slideRight,1.5s Infinite  linear wind;animation-delay: 0s,1s;}svg#freepik_stories-online-groceries.animated #freepik--Plant--inject-82 {animation: 1s 1 forwards cubic-bezier(.36,-0.01,.5,1.38) lightSpeedLeft,1.5s Infinite  linear wind;animation-delay: 0s,1s;}            @keyframes zoomIn {                0% {                    opacity: 0;                    transform: scale(0.5);                }                100% {                    opacity: 1;                    transform: scale(1);                }            }                    @keyframes floating {                0% {                    opacity: 1;                    transform: translateY(0px);                }                50% {                    transform: translateY(-10px);                }                100% {                    opacity: 1;                    transform: translateY(0px);                }            }                    @keyframes fadeIn {                0% {                    opacity: 0;                }                100% {                    opacity: 1;                }            }                    @keyframes slideRight {                0% {                    opacity: 0;                    transform: translateX(30px);                }                100% {                    opacity: 1;                    transform: translateX(0);                }            }                    @keyframes wind {                0% {                    transform: rotate( 0deg );                }                25% {                    transform: rotate( 1deg );                }                75% {                    transform: rotate( -1deg );                }            }                    @keyframes lightSpeedLeft {              from {                transform: translate3d(-50%, 0, 0) skewX(20deg);                opacity: 0;              }              60% {                transform: skewX(-10deg);                opacity: 1;              }              80% {                transform: skewX(2deg);              }              to {                opacity: 1;                transform: translate3d(0, 0, 0);              }            }        </style><g id="freepik--background-complete--inject-82" class="animable" style="transform-origin: 259.735px 165.47px;"><path d="M444.87,50.51l.21,80.51a8.15,8.15,0,0,1-8.13,8.17l-127.68.33a8.15,8.15,0,0,1-8.17-8.13l-.21-80.51a7.59,7.59,0,0,1,7.57-7.6L437.27,43A7.58,7.58,0,0,1,444.87,50.51Z" style="fill: rgb(219, 219, 219); transform-origin: 372.985px 91.26px;" id="elm9n7r46414s" class="animable"></path><path d="M424.29,119.73a7.49,7.49,0,1,1-7.51-7.48A7.49,7.49,0,0,1,424.29,119.73Z" style="fill: rgb(166, 166, 166); transform-origin: 416.8px 119.74px;" id="eleo9jdihy6p" class="animable"></path><path d="M433.52,119.7a7.5,7.5,0,1,1-7.51-7.47A7.5,7.5,0,0,1,433.52,119.7Z" style="fill: rgb(0, 136, 122); transform-origin: 426.02px 119.73px;" id="elsu7n8axg4s" class="animable"></path><g id="elzr4hapyp6s8"><rect x="313.03" y="57.06" width="27.03" height="18.68" rx="4.2" style="fill: rgb(0, 136, 122); transform-origin: 326.545px 66.4px; transform: rotate(-0.15deg);" class="animable"></rect></g><path d="M428.26,67l-12.22,0A5.13,5.13,0,0,1,410.9,62h0A5.12,5.12,0,0,1,416,56.83l12.23,0a5.11,5.11,0,0,1,5.13,5.11h0A5.12,5.12,0,0,1,428.26,67Z" style="fill: rgb(255, 255, 255); transform-origin: 422.13px 61.915px;" id="elhnwidn9xyy9" class="animable"></path><path d="M312.11,92.8l-1.11.66a.27.27,0,0,1-.37-.09.26.26,0,0,1,.1-.37l1.51-.92a.28.28,0,0,1,.37.1.28.28,0,0,1,0,.2v7.2a.27.27,0,1,1-.53,0Z" style="fill: rgb(248, 248, 248); transform-origin: 311.609px 95.9744px;" id="elhhp8uo8x6w" class="animable"></path><path d="M314.59,99.36l3.65-3.31a2.05,2.05,0,0,0,.67-1.51,2,2,0,0,0-2-2,2.08,2.08,0,0,0-1.37.51l-.38.35a.27.27,0,1,1-.37-.39l.38-.36a2.61,2.61,0,0,1,1.74-.66,2.45,2.45,0,0,1,1.88.83,2.5,2.5,0,0,1,.68,1.71,2.59,2.59,0,0,1-.84,1.91l-3.13,2.84h3.71a.28.28,0,0,1,0,.55h-4.41a.23.23,0,0,1-.2-.08A.29.29,0,0,1,314.59,99.36Z" style="fill: rgb(248, 248, 248); transform-origin: 316.995px 95.9105px;" id="elukslmqpd12o" class="animable"></path><path d="M325.92,92.47l-2,2.08a2.71,2.71,0,0,1,1.35.72,2.65,2.65,0,0,1,.77,1.88,2.6,2.6,0,0,1-.77,1.88,2.66,2.66,0,0,1-1.88.79,2.61,2.61,0,0,1-1.88-.78.28.28,0,1,1,.39-.39,2.13,2.13,0,0,0,3,0,2.1,2.1,0,0,0,0-3,2.06,2.06,0,0,0-1.48-.61.28.28,0,0,1-.22-.11h0a.3.3,0,0,1,0-.41l1.94-2h-3a.27.27,0,0,1-.28-.28.28.28,0,0,1,.28-.28h3.66a.28.28,0,0,1,.25.41A.47.47,0,0,1,325.92,92.47Z" style="fill: rgb(248, 248, 248); transform-origin: 323.736px 95.89px;" id="el5oyrpqgta3p" class="animable"></path><path d="M332.52,98.18h-4.28a.25.25,0,0,1-.2-.43l4.52-5.66h0a.25.25,0,0,1,.38,0,.28.28,0,0,1,.09.13s0,0,0,0v0l0,5.37h.52a.28.28,0,0,1,.28.27.27.27,0,0,1-.28.27h-.52v1.35a.28.28,0,0,1-.55,0Zm0-.53v-4.6l-3.7,4.61Z" style="fill: rgb(248, 248, 248); transform-origin: 330.896px 95.8549px;" id="elwa3d2wy2phi" class="animable"></path><path d="M342.34,99a.27.27,0,0,1,0-.39.29.29,0,0,1,.41,0,2.07,2.07,0,0,0,1.48.61,2.12,2.12,0,0,0,1.47-.62,2.08,2.08,0,0,0,.62-1.48,2.15,2.15,0,0,0-.61-1.49,2.12,2.12,0,0,0-1.48-.6,2,2,0,0,0-1.49.62.27.27,0,0,1-.39,0,.15.15,0,0,1-.07-.09h0a.06.06,0,0,1,0,0,.22.22,0,0,1,0-.09.43.43,0,0,0,0,0l.37-3.16a.22.22,0,0,1,.11-.2.24.24,0,0,1,.18-.07h3.65a.27.27,0,0,1,.28.28.27.27,0,0,1-.28.28h-3.41l-.28,2.33a2.6,2.6,0,0,1,1.33-.36,2.57,2.57,0,0,1,1.88.76,2.63,2.63,0,0,1,.78,1.88,2.66,2.66,0,0,1-.77,1.89,2.8,2.8,0,0,1-1.88.78A2.69,2.69,0,0,1,342.34,99Z" style="fill: rgb(248, 248, 248); transform-origin: 344.573px 95.9599px;" id="elkv37cw7tjif" class="animable"></path><path d="M349.8,93.62a3.16,3.16,0,0,1,2.74-1.7.27.27,0,0,1,.28.25.29.29,0,0,1-.27.29,2.65,2.65,0,0,0-2.28,1.43,5.06,5.06,0,0,0-.56,1.57,2.56,2.56,0,0,1,1.94-.89,2.59,2.59,0,1,1-2.58,2.69,3,3,0,0,1,0-.52A6.48,6.48,0,0,1,349.8,93.62Zm-.19,3.59a.49.49,0,0,0,0,.14.17.17,0,0,1,0,.08,2,2,0,1,0,0-.27Z" style="fill: rgb(248, 248, 248); transform-origin: 351.653px 95.8349px;" id="elz26uop7b8bp" class="animable"></path><path d="M357.11,99.35,360,92.47h-3.78a.28.28,0,0,1-.27-.27.27.27,0,0,1,.26-.27h4.15a.33.33,0,0,1,.17,0,.3.3,0,0,1,.14.17.19.19,0,0,1,0,.23l-3,7.22a.27.27,0,0,1-.24.17.2.2,0,0,1-.11,0A.29.29,0,0,1,357.11,99.35Z" style="fill: rgb(248, 248, 248); transform-origin: 358.329px 95.8233px;" id="ellrgqemnggp7" class="animable"></path><path d="M364.84,91.87a1.63,1.63,0,0,1,1.63,1.62,1.61,1.61,0,0,1-.66,1.32,2.54,2.54,0,1,1-1.94,0,1.65,1.65,0,0,1-.65-1.32A1.61,1.61,0,0,1,364.84,91.87Zm0,7.3a2,2,0,1,0,0-4,2,2,0,1,0,0,4Zm0-4.57a1.11,1.11,0,0,0,1.1-1.11,1.09,1.09,0,0,0-1.1-1.08,1.08,1.08,0,0,0-1.09,1.09A1.1,1.1,0,0,0,364.84,94.6Z" style="fill: rgb(248, 248, 248); transform-origin: 364.84px 95.7837px;" id="eljv1ysvk43hp" class="animable"></path><path d="M378.77,91.84a2.57,2.57,0,0,1,2.58,2.27.42.42,0,0,0,0,.06c0,.21,0,.44,0,.67a6.59,6.59,0,0,1-.74,3.13,3.26,3.26,0,0,1-2.74,1.71h0a.27.27,0,0,1-.29-.26.29.29,0,0,1,.27-.29,2.65,2.65,0,0,0,2.28-1.43,4.9,4.9,0,0,0,.56-1.57,2.55,2.55,0,0,1-2,.87,2.58,2.58,0,1,1,0-5.16Zm2.06,2.57a2,2,0,0,0-4.09,0,2,2,0,0,0,4.09,0Z" style="fill: rgb(248, 248, 248); transform-origin: 378.73px 95.7603px;" id="elzsut50skov" class="animable"></path><path d="M383.37,95.74a4.92,4.92,0,0,1,.74-2.74A2.22,2.22,0,0,1,388,93a5.07,5.07,0,0,1,.77,2.74,5,5,0,0,1-.76,2.73,2.21,2.21,0,0,1-3.92,0A5,5,0,0,1,383.37,95.74Zm.55,0a4.44,4.44,0,0,0,.66,2.43,1.92,1.92,0,0,0,1.51.94,1.87,1.87,0,0,0,1.49-1,4.71,4.71,0,0,0,0-4.86,1.67,1.67,0,0,0-3,0A4.41,4.41,0,0,0,383.92,95.74Z" style="fill: rgb(248, 248, 248); transform-origin: 386.069px 95.7546px;" id="elrtrknh5iwer" class="animable"></path><path d="M392.41,92.6l-1.1.65a.33.33,0,0,1-.14,0,.27.27,0,0,1-.13-.5l1.51-.92a.28.28,0,0,1,.37.1.34.34,0,0,1,0,.2l0,7.2a.26.26,0,0,1-.27.27.28.28,0,0,1-.27-.27Z" style="fill: rgb(248, 248, 248); transform-origin: 391.923px 95.6986px;" id="elbqz0cpdy2du" class="animable"></path><path d="M394.89,99.15l3.66-3.31a2,2,0,0,0,.66-1.5,2,2,0,0,0-.53-1.35,2,2,0,0,0-2.85-.13l-.38.34a.25.25,0,0,1-.38,0,.26.26,0,0,1,0-.38l.38-.36a2.65,2.65,0,0,1,1.73-.66,2.55,2.55,0,0,1,2.56,2.55,2.57,2.57,0,0,1-.83,1.9l-3.13,2.84h3.71a.28.28,0,0,1,.26.28.26.26,0,0,1-.26.27h-4.42a.29.29,0,0,1-.2-.07A.31.31,0,0,1,394.89,99.15Z" style="fill: rgb(248, 248, 248); transform-origin: 397.274px 95.7201px;" id="els5lthnpeo9" class="animable"></path><path d="M412.94,92.24l-2,2.09A2.6,2.6,0,0,1,413,96.92a2.58,2.58,0,0,1-.77,1.88,2.66,2.66,0,0,1-1.88.79,2.57,2.57,0,0,1-1.88-.78.28.28,0,0,1,.39-.39,2.14,2.14,0,0,0,1.48.6,2.1,2.1,0,0,0,1.49-.61,2.11,2.11,0,0,0-1.49-3.58.28.28,0,0,1-.22-.11h0a.28.28,0,0,1,0-.4l1.94-2h-3a.28.28,0,0,1-.28-.28.27.27,0,0,1,.28-.28h3.66A.27.27,0,0,1,413,92a.24.24,0,0,1,0,.12A.18.18,0,0,1,412.94,92.24Z" style="fill: rgb(248, 248, 248); transform-origin: 410.713px 95.675px;" id="el1ts49stt14n" class="animable"></path><path d="M419.54,98h-4.28a.22.22,0,0,1-.17-.06.26.26,0,0,1,0-.38l4.52-5.65v0a.26.26,0,0,1,.38,0,.28.28,0,0,1,.09.13.2.2,0,0,0,0,.05v0l0,5.38h.52a.27.27,0,1,1,0,.53h-.52V99.3a.27.27,0,0,1-.28.27.28.28,0,0,1-.27-.27Zm0-.54,0-4.59-3.69,4.6Z" style="fill: rgb(248, 248, 248); transform-origin: 417.965px 95.6988px;" id="elc0hri294k5b" class="animable"></path><path d="M422.65,98.79a.27.27,0,0,1,0-.39.28.28,0,0,1,.4,0,2.12,2.12,0,0,0,1.48.6,2.1,2.1,0,0,0,2.09-2.1,2.06,2.06,0,0,0-.61-1.49,2.09,2.09,0,0,0-1.48-.6,2.06,2.06,0,0,0-1.49.62.27.27,0,0,1-.39,0,.2.2,0,0,1-.07-.09h0a0,0,0,0,1,0,0,.28.28,0,0,1,0-.09s0,0,0-.06l.37-3.16a.33.33,0,0,1,.3-.27h3.65a.28.28,0,0,1,.28.28.27.27,0,0,1-.28.28h-3.42l-.27,2.33a2.65,2.65,0,0,1,4,2.29,2.62,2.62,0,0,1-.77,1.88,2.67,2.67,0,0,1-3.76,0Z" style="fill: rgb(248, 248, 248); transform-origin: 424.888px 95.6771px;" id="eljwuw7u1snbq" class="animable"></path><path d="M430.1,93.42a3.16,3.16,0,0,1,2.74-1.71.27.27,0,0,1,.28.25.3.3,0,0,1-.27.3,2.64,2.64,0,0,0-2.28,1.42,5,5,0,0,0-.55,1.57,2.58,2.58,0,1,1-.65,1.8,4.43,4.43,0,0,1,0-.52A6.52,6.52,0,0,1,430.1,93.42ZM429.92,97a.68.68,0,0,0,0,.15.22.22,0,0,1,0,.08,2.11,2.11,0,1,0,0-.27Z" style="fill: rgb(248, 248, 248); transform-origin: 431.945px 95.6268px;" id="el3m1i8j1zsea" class="animable"></path><g id="el98079oixut"><rect x="313.16" y="113.2" width="68.37" height="3.36" style="fill: rgb(166, 166, 166); transform-origin: 347.345px 114.88px; transform: rotate(-0.15deg);" class="animable"></rect></g><g id="elkvy9pjeprc"><rect x="313.18" y="120.69" width="48.4" height="3.36" style="fill: rgb(166, 166, 166); transform-origin: 337.38px 122.37px; transform: rotate(-0.15deg);" class="animable"></rect></g><g id="eloxzm3f0qwx"><rect x="372.09" y="56.9" width="34.1" height="3.36" style="fill: rgb(166, 166, 166); transform-origin: 389.14px 58.58px; transform: rotate(-0.15deg);" class="animable"></rect></g><rect x="393.77" y="214.06" width="73.88" height="73.88" style="fill: rgb(235, 235, 235); transform-origin: 430.71px 251px;" id="elvc4f06t54lo" class="animable"></rect><path d="M431.94,225.92a2.49,2.49,0,0,1,2.51,2.51v1.28a21.23,21.23,0,0,1,9.06,3.22,3.12,3.12,0,0,1,1.75,2.8,3.21,3.21,0,0,1-3.27,3.21,3.37,3.37,0,0,1-1.75-.52,21,21,0,0,0-6-2.57v11.21c8.88,2.22,12.68,5.78,12.68,12,0,6.43-5,10.69-12.45,11.39V274a2.49,2.49,0,0,1-2.51,2.51,2.54,2.54,0,0,1-2.57-2.51v-3.62a25.29,25.29,0,0,1-12-4.56,3.22,3.22,0,0,1-1.58-2.8,3.22,3.22,0,0,1,5.14-2.57,20.72,20.72,0,0,0,8.65,3.91V252.84c-8.53-2.22-12.5-5.43-12.5-12,0-6.25,5-10.57,12.26-11.15v-1.23A2.54,2.54,0,0,1,431.94,225.92Zm-2.33,19.91V235.5c-3.74.35-5.61,2.33-5.61,4.9S425.11,244.37,429.61,245.83Zm4.61,8.12v10.63c3.74-.4,5.78-2.27,5.78-5.08C440,256.93,438.72,255.36,434.22,254Z" style="fill: rgb(255, 255, 255); transform-origin: 431.365px 251.215px;" id="ely12g8nniwh" class="animable"></path><rect x="51.82" y="151.46" width="73.88" height="73.88" style="fill: rgb(235, 235, 235); transform-origin: 88.76px 188.4px;" id="elsm5az2cjyy" class="animable"></rect><path d="M105.15,203.09H70.7l-8.45-30.6,48.45-.05,1.75-7.06h5.49v2H114Zm-32.93-2h31.37l6.61-26.65-45.33,0Z" style="fill: rgb(255, 255, 255); transform-origin: 90.095px 184.235px;" id="elvbjmsx4nk4" class="animable"></path><polygon points="75.54 209.15 73.7 208.37 76.78 201.05 100.23 201.05 102.77 208.44 100.88 209.09 98.81 203.05 78.11 203.05 75.54 209.15" style="fill: rgb(255, 255, 255); transform-origin: 88.235px 205.1px;" id="el817koydnzas" class="animable"></polygon><rect x="65.74" y="179.44" width="44" height="2" style="fill: rgb(255, 255, 255); transform-origin: 87.74px 180.44px;" id="elbzqumut6g6f" class="animable"></rect><g id="el50btuqn7bx2"><rect x="67.58" y="186.94" width="39.8" height="2" style="fill: rgb(255, 255, 255); transform-origin: 87.48px 187.94px; transform: rotate(-0.25deg);" class="animable"></rect></g><rect x="69.67" y="194.62" width="36.07" height="2" style="fill: rgb(255, 255, 255); transform-origin: 87.705px 195.62px;" id="elvoyvayxbooo" class="animable"></rect><rect x="87.18" y="173.62" width="2" height="28.47" style="fill: rgb(255, 255, 255); transform-origin: 88.18px 187.855px;" id="elxsoppdes01p" class="animable"></rect><g id="ele64lrdpoqn5"><rect x="80.55" y="173.57" width="2" height="28.57" style="fill: rgb(255, 255, 255); transform-origin: 81.55px 187.855px; transform: rotate(-4.58deg);" class="animable"></rect></g><g id="eld9iskdg667m"><rect x="73.43" y="173.38" width="2" height="28.95" style="fill: rgb(255, 255, 255); transform-origin: 74.43px 187.855px; transform: rotate(-10.42deg);" class="animable"></rect></g><g id="elvapobrnv53d"><rect x="80.39" y="186.85" width="28.57" height="2" style="fill: rgb(255, 255, 255); transform-origin: 94.675px 187.85px; transform: rotate(-85.4deg);" class="animable"></rect></g><g id="el0kqwmpi8z5ip"><rect x="87.32" y="186.85" width="28.95" height="2" style="fill: rgb(255, 255, 255); transform-origin: 101.795px 187.85px; transform: rotate(-79.59deg);" class="animable"></rect></g><path d="M74.62,213.07a4.31,4.31,0,1,1,4.31-4.31A4.32,4.32,0,0,1,74.62,213.07Zm0-6.62a2.31,2.31,0,1,0,2.31,2.31A2.32,2.32,0,0,0,74.62,206.45Z" style="fill: rgb(255, 255, 255); transform-origin: 74.62px 208.76px;" id="elej4x15b1n9l" class="animable"></path><path d="M101.73,213.07a4.31,4.31,0,1,1,4.31-4.31A4.32,4.32,0,0,1,101.73,213.07Zm0-6.62a2.31,2.31,0,1,0,2.31,2.31A2.32,2.32,0,0,0,101.73,206.45Z" style="fill: rgb(255, 255, 255); transform-origin: 101.73px 208.76px;" id="elgwjpyb657tn" class="animable"></path></g><g id="freepik--Shadows--inject-82" class="animable" style="transform-origin: 246.045px 438.13px;"><ellipse cx="274.95" cy="438.13" rx="183.44" ry="24.29" style="fill: rgb(235, 235, 235); transform-origin: 274.95px 438.13px;" id="elc68mg0nkpw4" class="animable"></ellipse><ellipse cx="86.87" cy="425.42" rx="53.17" ry="10.18" style="fill: rgb(235, 235, 235); transform-origin: 86.87px 425.42px;" id="elwezvl6kwbmp" class="animable"></ellipse></g><g id="freepik--Floor--inject-82" class="animable" style="transform-origin: 250.005px 395.48px;"><polygon points="38.97 395.48 91.72 395.24 144.48 395.15 250 394.98 355.52 395.15 408.28 395.24 461.04 395.48 408.28 395.73 355.52 395.81 250 395.98 144.48 395.81 91.72 395.72 38.97 395.48" style="fill: rgb(38, 50, 56); transform-origin: 250.005px 395.48px;" id="el6wubn2hy2bs" class="animable"></polygon></g><g id="freepik--Device--inject-82" class="animable" style="transform-origin: 212.27px 245.895px;"><path d="M292.45,64.26H132.07a16.38,16.38,0,0,0-16.23,16.53V411a16.39,16.39,0,0,0,16.23,16.53H292.45A16.4,16.4,0,0,0,308.7,411V80.79A16.39,16.39,0,0,0,292.45,64.26Zm6.1,336.5c0,8.69-6.5,15.72-14.53,15.72H140.53c-8.05,0-14.56-7-14.56-15.72V93.3c0-17.7,6.51-18.56,14.56-18.56h28.74c1.67,0,3,1.9,3,4.25v1c0,5.52,3,5.53,6.73,5.53H245.5c3.74,0,6.73,0,6.73-5.53V79c0-2.35,1.34-4.25,3-4.25H284c8,0,14.53,2.35,14.53,18.56Z" style="fill: rgb(38, 50, 56); transform-origin: 212.27px 245.895px;" id="elbw2f7xwtps9" class="animable"></path><path d="M298.55,96.36v304.4c0,8.69-6.5,15.72-14.53,15.72H140.53c-8.05,0-14.56-7-14.56-15.72V96.36c0-17.7,6.51-21.62,14.56-21.62h28.74c1.67,0,3,1.9,3,4.25v1c0,5.52,3,5.53,6.73,5.53H245.5c3.74,0,6.73,0,6.73-5.53V79c0-2.35,1.34-4.25,3-4.25H284C292.05,74.74,298.55,80.15,298.55,96.36Z" style="fill: rgb(255, 255, 255); transform-origin: 212.26px 245.61px;" id="elzecb2chirc8" class="animable"></path><path d="M221.33,78.65H203.2a1.12,1.12,0,0,1-1.12-1.12h0a1.12,1.12,0,0,1,1.12-1.12h18.13a1.12,1.12,0,0,1,1.12,1.12h0A1.12,1.12,0,0,1,221.33,78.65Z" style="fill: rgb(255, 255, 255); transform-origin: 212.265px 77.53px;" id="elys20fndz3mj" class="animable"></path><rect x="200.56" y="245.58" width="20.94" height="2.72" style="fill: rgb(199, 199, 199); transform-origin: 211.03px 246.94px;" id="elcif4ggywm0s" class="animable"></rect><rect x="136.86" y="116.94" width="43.95" height="43.95" style="fill: rgb(0, 136, 122); transform-origin: 158.835px 138.915px;" id="elwm4uq0khigi" class="animable"></rect><g id="ellwx67u1jtz9"><rect x="136.86" y="116.94" width="43.95" height="43.95" style="fill: rgb(255, 255, 255); opacity: 0.5; transform-origin: 158.835px 138.915px;" class="animable"></rect></g><path d="M163.59,144.64l-5.78-1.93s-3,2.27-5-1.59a4.73,4.73,0,0,1-5.95-3.41s-5.53-1.75-3.94-4.87,6,.16,6,.16a6,6,0,0,1,5.94,4.13s4.21,0,4.22,3.86Z" style="fill: rgb(38, 50, 56); transform-origin: 153.111px 138.067px;" id="elnokt047sph" class="animable"></path><path d="M145.47,134q2.33,1.22,4.62,2.48c1.54.85,3.06,1.71,4.58,2.59s3,1.76,4.51,2.68,3,1.85,4.41,2.85l-1.12-.68-1.13-.67L159.08,142l-4.55-2.62L150,136.7Z" style="fill: rgb(255, 255, 255); transform-origin: 154.53px 139.3px;" id="elteqnrnkfsn" class="animable"></path><path d="M163.88,144.44l.06-6.1s3.1-2.06.11-5.23a4.73,4.73,0,0,0-1.29-6.74s.15-5.79-3.32-5.31-1.79,5.72-1.79,5.72a6,6,0,0,0,2,7s-1.38,4,2.28,5.24Z" style="fill: rgb(38, 50, 56); transform-origin: 161.294px 132.736px;" id="elcokgt1nbern" class="animable"></path><path d="M159.75,123.85c.36,1.72.71,3.43,1.05,5.15l1,5.15,1,5.15.52,2.57.27,1.29.28,1.28c-.49-1.68-.89-3.39-1.27-5.1s-.73-3.42-1.06-5.14-.66-3.44-1-5.17S160,125.58,159.75,123.85Z" style="fill: rgb(255, 255, 255); transform-origin: 161.81px 134.145px;" id="el5kk8i2t1cbg" class="animable"></path><path d="M164.22,145.38l-5.66-5.94s-4.77,1.17-5.18-4.55c0,0-6.16-.77-5.39-7.26,0,0-5.76-5-2.2-8S153,123,153,123a7.86,7.86,0,0,1,5,8.11S163,133.34,161,138Z" style="fill: rgb(69, 90, 100); transform-origin: 154.424px 132.103px;" id="elole7yzxs2fo" class="animable"></path><path d="M149.44,122.84c1.42,1.74,2.78,3.54,4.09,5.36l1,1.37,1,1.39c.32.46.63.93.94,1.39s.63.94.94,1.41c.62.94,1.22,1.89,1.82,2.84l.88,1.44.45.71.42.73c1.16,1.93,2.23,3.91,3.26,5.91l-.43-.72-.43-.73-.43-.73-.44-.71-.87-1.44-.89-1.44c-1.19-1.9-2.4-3.8-3.64-5.67-.6-.94-1.24-1.87-1.86-2.8l-.94-1.4-.95-1.39-1.92-2.77C150.75,124.67,150.09,123.76,149.44,122.84Z" style="fill: rgb(255, 255, 255); transform-origin: 156.84px 134.115px;" id="el42yeq487shi" class="animable"></path><path d="M173.38,145.25c.1.14.19.27.27.4,2.75,4.36-.85,7.85-1,9.41s1.13,2.65.41,3.16-1.27-1-2.85-1.42c-1.23-.3-4.36,1.11-7.21-.42a4.62,4.62,0,0,1-.69-.43,6.81,6.81,0,0,1-1.32-1.27,4,4,0,0,1-.29-.39l-.15-.21a8.32,8.32,0,0,1-1.62-5,8,8,0,0,1,.12-1,7.89,7.89,0,0,1,3.3-4.84c2.72-1.94,6.25-2.38,9.23.09q.28.24.57.51a12.1,12.1,0,0,1,1.07,1.24Z" style="fill: rgb(255, 255, 255); transform-origin: 166.806px 149.976px;" id="elgdzey9jerpl" class="animable"></path><path d="M166.3,153.12l.43.6L163,156.38a4.62,4.62,0,0,1-.69-.43Z" style="fill: rgb(219, 219, 219); transform-origin: 164.52px 154.75px;" id="elwe4d9jidqoi" class="animable"></path><path d="M163.13,152.24l.44.61L161,154.68a4,4,0,0,1-.29-.39l-.15-.21Z" style="fill: rgb(219, 219, 219); transform-origin: 162.065px 153.46px;" id="elgt0yypoum5k" class="animable"></path><path d="M173.38,145.25c.1.14.19.27.27.4l-2.56,1.83-.44-.6,2.58-1.84Z" style="fill: rgb(219, 219, 219); transform-origin: 172.15px 146.26px;" id="ellizltw7hrm" class="animable"></path><path d="M172.16,143.8l-1.84,1.32-.44-.61,1.71-1.22Q171.88,143.53,172.16,143.8Z" style="fill: rgb(219, 219, 219); transform-origin: 171.02px 144.205px;" id="elbzz5kufx9l6" class="animable"></path><path d="M161.1,146.58l.43.61L158.94,149a8,8,0,0,1,.12-1Z" style="fill: rgb(219, 219, 219); transform-origin: 160.235px 147.79px;" id="elqkmd7iblfkc" class="animable"></path><path d="M150.8,164.5a.2.2,0,0,1,.2.19V165a2.62,2.62,0,0,1,1.42.56.24.24,0,0,1,.11.19.21.21,0,0,1-.35.14,2.32,2.32,0,0,0-1.2-.52v2.24c1.22.25,1.73.71,1.73,1.49a1.57,1.57,0,0,1-1.71,1.48v.63a.2.2,0,0,1-.2.19.2.2,0,0,1-.19-.19v-.63a3.09,3.09,0,0,1-1.8-.78.23.23,0,0,1-.08-.17.21.21,0,0,1,.2-.2.17.17,0,0,1,.14.06,2.65,2.65,0,0,0,1.56.73V168c-1.2-.27-1.7-.71-1.7-1.51a1.56,1.56,0,0,1,1.68-1.44v-.31A.2.2,0,0,1,150.8,164.5Zm-.17,3v-2.18c-.78,0-1.29.48-1.29,1S149.6,167.29,150.63,167.54Zm.35.49v2.2c.8,0,1.32-.48,1.32-1.08S152,168.26,151,168Z" style="fill: rgb(166, 166, 166); transform-origin: 150.72px 167.95px;" id="el6uz0dk2abx7" class="animable"></path><path d="M153.73,170.25l2.61-2.36a1.46,1.46,0,0,0,.48-1.07,1.45,1.45,0,0,0-1.44-1.43,1.46,1.46,0,0,0-1,.37l-.27.24a.18.18,0,0,1-.27,0,.19.19,0,0,1,0-.28l.27-.25a1.88,1.88,0,0,1,1.24-.47,1.84,1.84,0,0,1,1.82,1.82,1.85,1.85,0,0,1-.6,1.36l-2.24,2H157a.19.19,0,0,1,.19.2.19.19,0,0,1-.19.19h-3.15a.17.17,0,0,1-.14-.05A.21.21,0,0,1,153.73,170.25Z" style="fill: rgb(166, 166, 166); transform-origin: 155.43px 167.786px;" id="elm3jbgziabh8" class="animable"></path><path d="M159.07,169.79a.4.4,0,0,1,.4.4.4.4,0,0,1-.8,0A.4.4,0,0,1,159.07,169.79Z" style="fill: rgb(166, 166, 166); transform-origin: 159.07px 170.19px;" id="el0oox849fojak" class="animable"></path><path d="M160.41,170a.19.19,0,0,1,0-.28.21.21,0,0,1,.29,0,1.5,1.5,0,0,0,1.06.43,1.5,1.5,0,0,0,1.49-1.49,1.5,1.5,0,0,0-.43-1.07,1.52,1.52,0,0,0-1.06-.43,1.51,1.51,0,0,0-1.06.44.19.19,0,0,1-.28,0,.15.15,0,0,1,0-.06h0v0a.15.15,0,0,1,0-.07s0,0,0,0l.27-2.25a.18.18,0,0,1,.08-.15.18.18,0,0,1,.13,0h2.6a.2.2,0,1,1,0,.4H161l-.2,1.66a1.89,1.89,0,0,1,2.29.29,1.92,1.92,0,0,1,0,2.69,1.94,1.94,0,0,1-1.34.55A1.9,1.9,0,0,1,160.41,170Z" style="fill: rgb(166, 166, 166); transform-origin: 162.025px 167.859px;" id="elpxj2skd1a7l" class="animable"></path><path d="M165.21,167.79a3.55,3.55,0,0,1,.54-1.95,1.59,1.59,0,0,1,2.8,0,3.81,3.81,0,0,1,0,3.91,1.59,1.59,0,0,1-2.8,0A3.58,3.58,0,0,1,165.21,167.79Zm.4,0a3.16,3.16,0,0,0,.47,1.74,1.34,1.34,0,0,0,1.07.67,1.37,1.37,0,0,0,1.07-.67,3.38,3.38,0,0,0,0-3.47,1.32,1.32,0,0,0-1.07-.67,1.29,1.29,0,0,0-1.07.67A3.15,3.15,0,0,0,165.61,167.79Z" style="fill: rgb(166, 166, 166); transform-origin: 167.15px 167.795px;" id="el1gy0c0h9rvt" class="animable"></path><rect x="188.82" y="116.94" width="43.95" height="43.95" style="fill: rgb(0, 136, 122); transform-origin: 210.795px 138.915px;" id="el5xognrqmy17" class="animable"></rect><g id="elb3qultt813"><rect x="188.82" y="116.94" width="43.95" height="43.95" style="fill: rgb(255, 255, 255); opacity: 0.5; transform-origin: 210.795px 138.915px;" class="animable"></rect></g><path d="M218.51,144.88c5.57,5.65,11.17,11.57,11.17,11.57a2.64,2.64,0,0,1-2,1.88l-11.3-11.45-.58-.58-.39-.4-1.16-1.18-.4-.4L211.55,142l-.39-.4c-2.27-2.29-4-4-4.49-4.55-2.52-2.56-14.8-7.86-14.8-7.86s-1-.65.32-2.35c0,0,4.76,2.25,9.21,4.5L191,124.74a2.06,2.06,0,0,1,.92-1.76l5.94,3.93-5.32-5.13s.13-.83,1.56-1.48l9.19,9.48-6.53-8.63a3.32,3.32,0,0,1,1.56-1.15s4,6.06,9.66,13.61L202,123.52a2.21,2.21,0,0,1,1.65-.78s4.66,11.11,9.59,16.82l.37.42c.17.19.35.37.52.55h0l1.8,1.78.39.4,1.17,1.17.39.4Z" style="fill: rgb(255, 255, 255); transform-origin: 210.34px 139.165px;" id="elgvi3851c6ij" class="animable"></path><path d="M203.69,122.74s4.66,11.11,9.59,16.82l-2.12,2c-2.27-2.29-4-4-4.49-4.55-2.52-2.56-14.8-7.86-14.8-7.86s-1-.65.32-2.35c0,0,4.76,2.25,9.21,4.5L191,124.74a2.06,2.06,0,0,1,.92-1.76l5.94,3.93-5.32-5.13s.13-.83,1.56-1.48l9.19,9.48-6.53-8.63a3.32,3.32,0,0,1,1.56-1.15s4,6.06,9.66,13.61L202,123.52A2.21,2.21,0,0,1,203.69,122.74Z" style="fill: rgb(69, 90, 100); transform-origin: 202.14px 130.78px;" id="elae8vqv9wspg" class="animable"></path><path d="M216,142.32l-2.11,2L211.55,142l2.1-2c.17.19.35.37.52.55h0Z" style="fill: rgb(69, 90, 100); transform-origin: 213.775px 142.16px;" id="eltthex5yrff" class="animable"></path><path d="M217.54,143.89l-2.11,2-1.16-1.18,2.1-2Z" style="fill: rgb(69, 90, 100); transform-origin: 215.905px 144.3px;" id="elce08am716sh" class="animable"></path><path d="M218.51,144.88l-2.11,2-.58-.58,2.11-2Z" style="fill: rgb(69, 90, 100); transform-origin: 217.165px 145.59px;" id="el7h8daf5l9no" class="animable"></path><path d="M203.21,164.5a.2.2,0,0,1,.19.19V165a2.59,2.59,0,0,1,1.42.56.23.23,0,0,1,.12.19.21.21,0,0,1-.21.2.18.18,0,0,1-.14-.06,2.35,2.35,0,0,0-1.2-.52v2.24c1.21.25,1.72.71,1.72,1.49a1.57,1.57,0,0,1-1.71,1.48v.63a.19.19,0,0,1-.38,0v-.63a3,3,0,0,1-1.8-.78.21.21,0,0,1-.09-.17.22.22,0,0,1,.2-.2.17.17,0,0,1,.14.06,2.67,2.67,0,0,0,1.56.73V168c-1.2-.27-1.69-.71-1.69-1.51A1.55,1.55,0,0,1,203,165v-.31A.2.2,0,0,1,203.21,164.5Zm-.18,3v-2.18a1.16,1.16,0,0,0-1.28,1C201.75,167,202,167.29,203,167.54Zm.36.49v2.2c.8,0,1.32-.48,1.32-1.08S204.42,168.26,203.39,168Z" style="fill: rgb(166, 166, 166); transform-origin: 203.12px 167.95px;" id="elapmgi44qpw" class="animable"></path><path d="M207.05,165.56l-.79.47-.1,0a.18.18,0,0,1-.16-.1.18.18,0,0,1,.07-.26l1.08-.66a.21.21,0,0,1,.26.08.22.22,0,0,1,0,.14v5.14a.19.19,0,0,1-.19.19.2.2,0,0,1-.19-.19Z" style="fill: rgb(166, 166, 166); transform-origin: 206.696px 167.776px;" id="elf7njjd4aze8" class="animable"></path><path d="M209.43,169.79a.39.39,0,0,1,.4.4.39.39,0,0,1-.4.4.39.39,0,0,1-.4-.4A.4.4,0,0,1,209.43,169.79Z" style="fill: rgb(166, 166, 166); transform-origin: 209.43px 170.19px;" id="elv2e76pp2lsp" class="animable"></path><path d="M210.58,167.79a3.54,3.54,0,0,1,.53-1.95,1.75,1.75,0,0,1,1.4-.84,1.73,1.73,0,0,1,1.4.84,3.75,3.75,0,0,1,0,3.91,1.73,1.73,0,0,1-1.4.84,1.75,1.75,0,0,1-1.4-.84A3.58,3.58,0,0,1,210.58,167.79Zm.39,0a3.16,3.16,0,0,0,.47,1.74,1.35,1.35,0,0,0,1.07.67,1.38,1.38,0,0,0,1.08-.67,3.44,3.44,0,0,0,0-3.47,1.33,1.33,0,0,0-1.08-.67,1.31,1.31,0,0,0-1.07.67A3.15,3.15,0,0,0,211,167.79Z" style="fill: rgb(166, 166, 166); transform-origin: 212.519px 167.795px;" id="el5qjef7nbgwv" class="animable"></path><path d="M216.26,167.79a3.54,3.54,0,0,1,.53-1.95,1.75,1.75,0,0,1,1.4-.84,1.73,1.73,0,0,1,1.4.84,3.75,3.75,0,0,1,0,3.91,1.73,1.73,0,0,1-1.4.84,1.75,1.75,0,0,1-1.4-.84A3.58,3.58,0,0,1,216.26,167.79Zm.39,0a3.16,3.16,0,0,0,.47,1.74,1.19,1.19,0,0,0,2.14,0,3.38,3.38,0,0,0,0-3.47,1.19,1.19,0,0,0-2.14,0A3.15,3.15,0,0,0,216.65,167.79Z" style="fill: rgb(166, 166, 166); transform-origin: 218.199px 167.795px;" id="elrwd5y62l0zp" class="animable"></path><rect x="240.78" y="116.94" width="43.95" height="43.95" style="fill: rgb(0, 136, 122); transform-origin: 262.755px 138.915px;" id="elhthz7krrd0d" class="animable"></rect><g id="eluhe2ynxnlh"><rect x="240.78" y="116.94" width="43.95" height="43.95" style="fill: rgb(255, 255, 255); opacity: 0.5; transform-origin: 262.755px 138.915px;" class="animable"></rect></g><path d="M249.7,144.29c3.44,11.21,14,9.78,17,8.86s12.52-5.65,9.07-16.86-14.7-8.62-16.71-8C256.79,129,246.26,133.09,249.7,144.29Z" style="fill: rgb(255, 255, 255); transform-origin: 262.764px 140.676px;" id="el304azbxt7rc" class="animable"></path><path d="M260,129.82s.47,4.22,7.87,1.69C267.9,131.51,262.89,126.19,260,129.82Z" style="fill: rgb(69, 90, 100); transform-origin: 263.935px 130.435px;" id="elsat20tosvk" class="animable"></path><path d="M260.75,131.57s3.48.23,2.49-6.11C263.24,125.46,258.22,128.74,260.75,131.57Z" style="fill: rgb(69, 90, 100); transform-origin: 261.727px 128.516px;" id="elwsznxg7699" class="animable"></path><path d="M260.47,130.45s-1.21,3.27-6.6-.22C253.87,130.23,258.92,127,260.47,130.45Z" style="fill: rgb(69, 90, 100); transform-origin: 257.17px 130.349px;" id="elvx97gae9pk" class="animable"></path><path d="M260.24,129.62s-3.24,2.74,3,7.47C263.22,137.09,264.84,130,260.24,129.62Z" style="fill: rgb(69, 90, 100); transform-origin: 261.45px 133.355px;" id="el03psn2wc5ncj" class="animable"></path><path d="M259.9,130.23s-4.67-1.31-4.06,6.67C255.84,136.9,263,134.42,259.9,130.23Z" style="fill: rgb(69, 90, 100); transform-origin: 258.232px 133.525px;" id="elojmnvx66ox" class="animable"></path><path d="M260.68,131.21a8.37,8.37,0,0,0-2.91-7.13,2.68,2.68,0,0,0-2.46,2.1s4,2.23,4.26,5.85l.93-.55" style="fill: rgb(38, 50, 56); transform-origin: 258.012px 128.055px;" id="elam3jwj40myp" class="animable"></path><path d="M255.27,164.5a.2.2,0,0,1,.2.19V165a2.62,2.62,0,0,1,1.42.56.24.24,0,0,1,.11.19.21.21,0,0,1-.35.14,2.32,2.32,0,0,0-1.2-.52v2.24c1.22.25,1.73.71,1.73,1.49a1.57,1.57,0,0,1-1.71,1.48v.63a.2.2,0,0,1-.2.19.2.2,0,0,1-.19-.19v-.63a3.09,3.09,0,0,1-1.8-.78.23.23,0,0,1-.08-.17.21.21,0,0,1,.2-.2.17.17,0,0,1,.14.06,2.67,2.67,0,0,0,1.56.73V168c-1.2-.27-1.7-.71-1.7-1.51a1.56,1.56,0,0,1,1.68-1.44v-.31A.2.2,0,0,1,255.27,164.5Zm-.17,3v-2.18c-.78,0-1.29.48-1.29,1S254.07,167.29,255.1,167.54Zm.35.49v2.2c.8,0,1.32-.48,1.32-1.08S256.49,168.26,255.45,168Z" style="fill: rgb(166, 166, 166); transform-origin: 255.19px 167.95px;" id="elv40hst4vogj" class="animable"></path><path d="M259.12,165.56l-.8.47-.09,0a.19.19,0,0,1-.17-.1.18.18,0,0,1,.07-.26l1.08-.66a.2.2,0,0,1,.29.22v5.14a.19.19,0,1,1-.38,0Z" style="fill: rgb(166, 166, 166); transform-origin: 258.768px 167.773px;" id="el4pmb2xju3hq" class="animable"></path><path d="M261.5,169.79a.4.4,0,0,1,.4.4.4.4,0,0,1-.8,0A.4.4,0,0,1,261.5,169.79Z" style="fill: rgb(166, 166, 166); transform-origin: 261.5px 170.19px;" id="elqnzw3t16qu" class="animable"></path><path d="M262.84,170a.19.19,0,0,1,0-.28.21.21,0,0,1,.29,0,1.5,1.5,0,0,0,1.06.43,1.5,1.5,0,0,0,1.49-1.49,1.5,1.5,0,0,0-.43-1.07,1.52,1.52,0,0,0-1.06-.43,1.51,1.51,0,0,0-1.06.44.19.19,0,0,1-.28,0,.15.15,0,0,1-.05-.06h0v0a.15.15,0,0,1,0-.07s0,0,0,0l.27-2.25a.2.2,0,0,1,.2-.19h2.61a.2.2,0,0,1,0,.4h-2.44l-.2,1.66a1.89,1.89,0,0,1,2.29.29,1.92,1.92,0,0,1,0,2.69,1.94,1.94,0,0,1-1.34.55A1.9,1.9,0,0,1,262.84,170Z" style="fill: rgb(166, 166, 166); transform-origin: 264.429px 167.825px;" id="elmy1r3w2vm9l" class="animable"></path><path d="M267.64,167.79a3.55,3.55,0,0,1,.54-1.95,1.59,1.59,0,0,1,2.8,0,3.81,3.81,0,0,1,0,3.91,1.59,1.59,0,0,1-2.8,0A3.58,3.58,0,0,1,267.64,167.79Zm.4,0a3.16,3.16,0,0,0,.47,1.74,1.34,1.34,0,0,0,1.07.67,1.37,1.37,0,0,0,1.07-.67,3.38,3.38,0,0,0,0-3.47,1.32,1.32,0,0,0-1.07-.67,1.29,1.29,0,0,0-1.07.67A3.15,3.15,0,0,0,268,167.79Z" style="fill: rgb(166, 166, 166); transform-origin: 269.58px 167.795px;" id="el375diudvwp5" class="animable"></path><rect x="136.86" y="181.11" width="43.95" height="43.95" style="fill: rgb(0, 136, 122); transform-origin: 158.835px 203.085px;" id="elquq9phix8ia" class="animable"></rect><g id="elr5tj0dma8mb"><rect x="136.86" y="181.11" width="43.95" height="43.95" style="fill: rgb(255, 255, 255); opacity: 0.5; transform-origin: 158.835px 203.085px;" class="animable"></rect></g><path d="M171.06,199.38v21.68c0,1.34-2.7,2.11-11.76,2.11s-11.75-.77-11.75-2.11V199.38c0-5.78,6.38-9.55,6.38-10.67v-4.36h10.75v4.36C164.68,189.83,171.06,193.6,171.06,199.38Z" style="fill: rgb(255, 255, 255); transform-origin: 159.305px 203.76px;" id="el85fgd9vqe4u" class="animable"></path><rect x="153.33" y="182.34" width="11.96" height="3.65" style="fill: rgb(55, 71, 79); transform-origin: 159.31px 184.165px;" id="eluvhpq6e50nj" class="animable"></rect><rect x="147.55" y="205.11" width="23.51" height="11.72" style="fill: rgb(55, 71, 79); transform-origin: 159.305px 210.97px;" id="elxd8l3gt1d9q" class="animable"></rect><path d="M150.38,229a.2.2,0,0,1,.2.19v.32a2.62,2.62,0,0,1,1.42.56.24.24,0,0,1,.11.19.21.21,0,0,1-.35.14,2.32,2.32,0,0,0-1.2-.52v2.24c1.22.26,1.73.71,1.73,1.5a1.58,1.58,0,0,1-1.71,1.48v.62a.2.2,0,0,1-.2.19.2.2,0,0,1-.19-.19v-.63a3,3,0,0,1-1.8-.78.21.21,0,0,1-.08-.17.21.21,0,0,1,.2-.2.2.2,0,0,1,.14.06,2.61,2.61,0,0,0,1.56.73v-2.28c-1.2-.27-1.7-.7-1.7-1.5a1.56,1.56,0,0,1,1.68-1.45v-.31A.2.2,0,0,1,150.38,229Zm-.17,3v-2.18c-.78,0-1.29.48-1.29,1S149.18,231.8,150.21,232.05Zm.35.49v2.21c.8,0,1.32-.48,1.32-1.09S151.6,232.77,150.56,232.54Z" style="fill: rgb(166, 166, 166); transform-origin: 150.3px 232.455px;" id="eldo2sr3ja59m" class="animable"></path><path d="M156.7,229.86l-1.45,1.49a1.89,1.89,0,0,1,.95,3.2,2,2,0,0,1-1.34.56,1.9,1.9,0,0,1-1.34-.56.2.2,0,0,1,.28-.28,1.54,1.54,0,0,0,1.06.43,1.56,1.56,0,0,0,1.06-.43,1.49,1.49,0,0,0,.44-1.07,1.5,1.5,0,0,0-1.5-1.49.21.21,0,0,1-.16-.08h0a.21.21,0,0,1,0-.29l1.39-1.43h-2.15a.2.2,0,0,1,0-.4h2.62a.2.2,0,0,1,.2.2.29.29,0,0,1,0,.09Z" style="fill: rgb(166, 166, 166); transform-origin: 155.122px 232.31px;" id="el3yp3hweiscg" class="animable"></path><path d="M158.81,234.31a.39.39,0,0,1,.4.4.4.4,0,1,1-.8,0A.39.39,0,0,1,158.81,234.31Z" style="fill: rgb(166, 166, 166); transform-origin: 158.81px 234.71px;" id="eldigg39a7ujr" class="animable"></path><path d="M160,232.31a3.61,3.61,0,0,1,.54-2,1.59,1.59,0,0,1,2.8,0,3.7,3.7,0,0,1,.54,2,3.63,3.63,0,0,1-.54,1.95,1.58,1.58,0,0,1-2.8,0A3.55,3.55,0,0,1,160,232.31Zm.4,0a3.15,3.15,0,0,0,.47,1.73,1.32,1.32,0,0,0,1.07.67A1.34,1.34,0,0,0,163,234a3.38,3.38,0,0,0,0-3.47,1.32,1.32,0,0,0-1.07-.67,1.29,1.29,0,0,0-1.07.67A3.16,3.16,0,0,0,160.35,232.31Z" style="fill: rgb(166, 166, 166); transform-origin: 161.94px 232.291px;" id="elt8v3ca6de5" class="animable"></path><path d="M165.63,232.31a3.61,3.61,0,0,1,.54-2,1.59,1.59,0,0,1,2.8,0,3.7,3.7,0,0,1,.54,2,3.63,3.63,0,0,1-.54,1.95,1.58,1.58,0,0,1-2.8,0A3.55,3.55,0,0,1,165.63,232.31Zm.4,0a3.15,3.15,0,0,0,.47,1.73,1.32,1.32,0,0,0,1.07.67,1.34,1.34,0,0,0,1.07-.67,3.38,3.38,0,0,0,0-3.47,1.32,1.32,0,0,0-1.07-.67,1.29,1.29,0,0,0-1.07.67A3.16,3.16,0,0,0,166,232.31Z" style="fill: rgb(166, 166, 166); transform-origin: 167.57px 232.291px;" id="elvg99c8xz1yn" class="animable"></path><rect x="188.82" y="181.11" width="43.95" height="43.95" style="fill: rgb(0, 136, 122); transform-origin: 210.795px 203.085px;" id="elrb1sikz1fgq" class="animable"></rect><g id="eltbn4tmknimp"><rect x="188.82" y="181.11" width="43.95" height="43.95" style="fill: rgb(255, 255, 255); opacity: 0.5; transform-origin: 210.795px 203.085px;" class="animable"></rect></g><rect x="201.86" y="190.63" width="18.34" height="32.49" style="fill: rgb(255, 255, 255); transform-origin: 211.03px 206.875px;" id="el97lirr43d2k" class="animable"></rect><rect x="201.86" y="190.63" width="18.34" height="32.49" style="fill: rgb(255, 255, 255); transform-origin: 211.03px 206.875px;" id="el8nj7wuw5ktb" class="animable"></rect><rect x="201.86" y="202.64" width="18.34" height="13.65" style="fill: rgb(69, 90, 100); transform-origin: 211.03px 209.465px;" id="ela6ov1jrnwo8" class="animable"></rect><polygon points="220.2 190.63 201.87 190.63 204.14 186.16 217.91 186.16 220.2 190.63" style="fill: rgb(255, 255, 255); transform-origin: 211.035px 188.395px;" id="el953r3on27em" class="animable"></polygon><polygon points="220.2 190.63 201.87 190.63 204.14 186.16 217.91 186.16 220.2 190.63" style="fill: rgb(219, 219, 219); transform-origin: 211.035px 188.395px;" id="elf60wm8ffx2" class="animable"></polygon><rect x="204.11" y="182.39" width="13.8" height="3.77" style="fill: rgb(255, 255, 255); transform-origin: 211.01px 184.275px;" id="elz2tqo9qz29p" class="animable"></rect><path d="M202.53,229a.2.2,0,0,1,.19.19v.32a2.59,2.59,0,0,1,1.42.56.23.23,0,0,1,.12.19.21.21,0,0,1-.36.14,2.29,2.29,0,0,0-1.19-.52v2.24c1.21.26,1.72.71,1.72,1.5a1.58,1.58,0,0,1-1.71,1.48v.62a.19.19,0,0,1-.38,0v-.63a3,3,0,0,1-1.8-.78.2.2,0,0,1-.09-.17.22.22,0,0,1,.2-.2.2.2,0,0,1,.14.06,2.61,2.61,0,0,0,1.56.73v-2.28c-1.2-.27-1.69-.7-1.69-1.5a1.55,1.55,0,0,1,1.68-1.45v-.31A.2.2,0,0,1,202.53,229Zm-.18,3v-2.18a1.16,1.16,0,0,0-1.28,1C201.07,231.47,201.32,231.8,202.35,232.05Zm.36.49v2.21c.79,0,1.31-.48,1.31-1.09S203.74,232.77,202.71,232.54Z" style="fill: rgb(166, 166, 166); transform-origin: 202.44px 232.455px;" id="elz3l0wex050g" class="animable"></path><path d="M205.45,234.76l2.61-2.36a1.43,1.43,0,0,0,.11-2,1.43,1.43,0,0,0-1.06-.47,1.44,1.44,0,0,0-1,.37l-.27.25a.19.19,0,0,1-.27-.28l.28-.26a1.88,1.88,0,0,1,1.24-.47,1.84,1.84,0,0,1,1.82,1.82,1.84,1.84,0,0,1-.6,1.36l-2.24,2h2.65a.2.2,0,0,1,0,.4h-3.15a.19.19,0,0,1-.15-.06A.21.21,0,0,1,205.45,234.76Z" style="fill: rgb(166, 166, 166); transform-origin: 207.145px 232.33px;" id="el4li3jmqt2ft" class="animable"></path><path d="M210.79,234.31a.39.39,0,0,1,.4.4.39.39,0,0,1-.4.4.4.4,0,0,1-.4-.4A.39.39,0,0,1,210.79,234.31Z" style="fill: rgb(166, 166, 166); transform-origin: 210.79px 234.71px;" id="elavni7f8g8ok" class="animable"></path><path d="M212.14,234.55a.19.19,0,0,1,0-.28.21.21,0,0,1,.29,0,1.49,1.49,0,0,0,1,.44,1.51,1.51,0,0,0,1.06-.44,1.53,1.53,0,0,0,.44-1.06,1.49,1.49,0,0,0-.44-1.06,1.5,1.5,0,0,0-2.11,0,.21.21,0,0,1-.28,0,.12.12,0,0,1-.05-.07h0s0,0,0,0a.13.13,0,0,1,0-.06v0l.27-2.26a.16.16,0,0,1,.08-.14.15.15,0,0,1,.13-.05h2.61a.2.2,0,0,1,.2.2.19.19,0,0,1-.2.2h-2.44l-.2,1.66a1.85,1.85,0,0,1,1-.25,1.89,1.89,0,0,1,1.89,1.89,1.85,1.85,0,0,1-.56,1.34,1.93,1.93,0,0,1-1.34.56A1.89,1.89,0,0,1,212.14,234.55Z" style="fill: rgb(166, 166, 166); transform-origin: 213.718px 232.369px;" id="el7dt1t2fitbh" class="animable"></path><path d="M216.94,232.31a3.6,3.6,0,0,1,.53-2,1.75,1.75,0,0,1,1.4-.84,1.73,1.73,0,0,1,1.4.84,3.61,3.61,0,0,1,.55,2,3.55,3.55,0,0,1-.55,1.95,1.74,1.74,0,0,1-1.4.85,1.77,1.77,0,0,1-1.4-.85A3.54,3.54,0,0,1,216.94,232.31Zm.39,0a3.15,3.15,0,0,0,.47,1.73,1.19,1.19,0,0,0,2.14,0,3.38,3.38,0,0,0,0-3.47,1.19,1.19,0,0,0-2.14,0A3.16,3.16,0,0,0,217.33,232.31Z" style="fill: rgb(166, 166, 166); transform-origin: 218.88px 232.29px;" id="el550cb1arlu7" class="animable"></path><rect x="240.78" y="181.11" width="43.95" height="43.95" style="fill: rgb(0, 136, 122); transform-origin: 262.755px 203.085px;" id="el97mvtp5twol" class="animable"></rect><g id="eluphroidhjef"><rect x="240.78" y="181.11" width="43.95" height="43.95" style="fill: rgb(255, 255, 255); opacity: 0.5; transform-origin: 262.755px 203.085px;" class="animable"></rect></g><path d="M271.22,199.38v21.68c0,1.34-1.94,2.11-8.47,2.11s-8.46-.77-8.46-2.11V199.38c0-5.78,4.6-9.55,4.6-10.67v-4.36h7.73v4.36C266.62,189.83,271.22,193.6,271.22,199.38Z" style="fill: rgb(255, 255, 255); transform-origin: 262.755px 203.76px;" id="el9gbmmnj1oiw" class="animable"></path><rect x="258.45" y="182.34" width="8.61" height="3.65" style="fill: rgb(69, 90, 100); transform-origin: 262.755px 184.165px;" id="elpqy7ziazr1s" class="animable"></rect><rect x="256.7" y="206.77" width="12.12" height="8.39" style="fill: rgb(219, 219, 219); transform-origin: 262.76px 210.965px;" id="elx4vk33qzqhj" class="animable"></rect><path d="M253.91,229a.2.2,0,0,1,.2.19v.32a2.62,2.62,0,0,1,1.42.56.24.24,0,0,1,.11.19.21.21,0,0,1-.35.14,2.32,2.32,0,0,0-1.2-.52v2.24c1.22.26,1.73.71,1.73,1.5a1.58,1.58,0,0,1-1.71,1.48v.62a.2.2,0,0,1-.2.19.2.2,0,0,1-.19-.19v-.63a3,3,0,0,1-1.8-.78.21.21,0,0,1-.08-.17.21.21,0,0,1,.2-.2.2.2,0,0,1,.14.06,2.61,2.61,0,0,0,1.56.73v-2.28c-1.2-.27-1.7-.7-1.7-1.5a1.56,1.56,0,0,1,1.68-1.45v-.31A.2.2,0,0,1,253.91,229Zm-.17,3v-2.18c-.78,0-1.29.48-1.29,1S252.71,231.8,253.74,232.05Zm.35.49v2.21c.8,0,1.32-.48,1.32-1.09S255.13,232.77,254.09,232.54Z" style="fill: rgb(166, 166, 166); transform-origin: 253.83px 232.455px;" id="elcivt9v0bkyj" class="animable"></path><path d="M256.84,234.76l2.61-2.36a1.44,1.44,0,0,0,.48-1.07,1.44,1.44,0,0,0-2.41-1.06l-.28.25a.19.19,0,1,1-.26-.28l.27-.26a1.88,1.88,0,0,1,1.24-.47,1.84,1.84,0,0,1,1.82,1.82,1.84,1.84,0,0,1-.6,1.36l-2.23,2h2.64a.2.2,0,0,1,0,.4H257a.18.18,0,0,1-.14-.06A.21.21,0,0,1,256.84,234.76Z" style="fill: rgb(166, 166, 166); transform-origin: 258.56px 232.3px;" id="elb69qt44m2ef" class="animable"></path><path d="M262.18,234.31a.39.39,0,0,1,.4.4.4.4,0,1,1-.8,0A.39.39,0,0,1,262.18,234.31Z" style="fill: rgb(166, 166, 166); transform-origin: 262.18px 234.711px;" id="elqag6zjpoj6" class="animable"></path><path d="M263.32,232.31a3.61,3.61,0,0,1,.54-2,1.59,1.59,0,0,1,2.8,0,3.7,3.7,0,0,1,.54,2,3.63,3.63,0,0,1-.54,1.95,1.58,1.58,0,0,1-2.8,0A3.55,3.55,0,0,1,263.32,232.31Zm.4,0a3.15,3.15,0,0,0,.47,1.73,1.33,1.33,0,0,0,1.07.67,1.34,1.34,0,0,0,1.07-.67,3.38,3.38,0,0,0,0-3.47,1.32,1.32,0,0,0-1.07-.67,1.31,1.31,0,0,0-1.07.67A3.16,3.16,0,0,0,263.72,232.31Z" style="fill: rgb(166, 166, 166); transform-origin: 265.26px 232.291px;" id="el1400givmpbpo" class="animable"></path><path d="M269,232.31a3.61,3.61,0,0,1,.54-2,1.59,1.59,0,0,1,2.8,0,3.7,3.7,0,0,1,.54,2,3.63,3.63,0,0,1-.54,1.95,1.58,1.58,0,0,1-2.8,0A3.55,3.55,0,0,1,269,232.31Zm.4,0a3.15,3.15,0,0,0,.47,1.73,1.32,1.32,0,0,0,1.07.67A1.34,1.34,0,0,0,272,234a3.38,3.38,0,0,0,0-3.47,1.32,1.32,0,0,0-1.07-.67,1.29,1.29,0,0,0-1.07.67A3.16,3.16,0,0,0,269.4,232.31Z" style="fill: rgb(166, 166, 166); transform-origin: 270.94px 232.291px;" id="elus9kv5ebyge" class="animable"></path><rect x="136.86" y="263.45" width="43.95" height="43.95" style="fill: rgb(0, 136, 122); transform-origin: 158.835px 285.425px;" id="elrizf68n4odr" class="animable"></rect><g id="el8dzc1irpgyh"><rect x="136.86" y="263.45" width="43.95" height="43.95" style="fill: rgb(255, 255, 255); opacity: 0.5; transform-origin: 158.835px 285.425px;" class="animable"></rect></g><path d="M148.69,286.13c0,7.71,3.14,19.76,3.45,19.76h13c.37,0,4.83-10.35,4.83-20.71,0-10.81-7.5-12.66-7.5-13.41v-4.15h-7.62v4.15C154.81,272.52,148.69,276.55,148.69,286.13Zm14.49-10.77c3.72,0,6.75,10.1,4,11.08C163.33,287.83,159.76,275.39,163.18,275.36Z" style="fill: rgb(255, 255, 255); transform-origin: 159.33px 286.755px;" id="elgysepi2tmx" class="animable"></path><path d="M159.57,275.36c.21-2.58-5.49-2-7.87,6.47-1.81,6.42.24,19.67,6.64,19.67,7.64,0,8.11-11.24,7.61-11.69S158.62,287,159.57,275.36Z" style="fill: rgb(235, 235, 235); transform-origin: 158.58px 287.754px;" id="elxcztv51hmoq" class="animable"></path><polygon points="153.21 269.99 163.96 269.99 163.22 265.25 153.94 265.25 153.21 269.99" style="fill: rgb(69, 90, 100); transform-origin: 158.585px 267.62px;" id="elde17k6h28lv" class="animable"></polygon><path d="M150.4,313a.19.19,0,0,1,.2.19v.32a2.62,2.62,0,0,1,1.42.56.21.21,0,0,1,.11.18.2.2,0,0,1-.21.2.24.24,0,0,1-.14-.05,2.17,2.17,0,0,0-1.2-.52v2.23c1.22.26,1.73.72,1.73,1.5a1.57,1.57,0,0,1-1.71,1.48v.62a.19.19,0,0,1-.2.19.19.19,0,0,1-.19-.19v-.63a3,3,0,0,1-1.8-.78.19.19,0,0,1-.08-.16.2.2,0,0,1,.2-.2.21.21,0,0,1,.14.05,2.53,2.53,0,0,0,1.56.73v-2.28c-1.2-.26-1.7-.7-1.7-1.5a1.57,1.57,0,0,1,1.68-1.45v-.3A.19.19,0,0,1,150.4,313Zm-.17,3v-2.18c-.78,0-1.29.48-1.29,1.06S149.2,315.79,150.23,316Zm.35.49v2.21c.8,0,1.32-.48,1.32-1.09S151.62,316.75,150.58,316.52Z" style="fill: rgb(166, 166, 166); transform-origin: 150.32px 316.45px;" id="els8pfg040vf" class="animable"></path><path d="M153.45,318.54a.19.19,0,0,1,0-.28.21.21,0,0,1,.29,0,1.54,1.54,0,0,0,1.06.43,1.49,1.49,0,0,0,1-.44,1.49,1.49,0,1,0-2.11-2.11.19.19,0,0,1-.28,0,.18.18,0,0,1-.05-.07h0v0s0,0,0-.06v0l.27-2.26a.16.16,0,0,1,.08-.14.19.19,0,0,1,.13-.05h2.6a.2.2,0,0,1,.2.2.19.19,0,0,1-.2.2h-2.44l-.2,1.66a2,2,0,0,1,1-.25,1.88,1.88,0,0,1,1.88,1.89,1.87,1.87,0,0,1-.55,1.35,1.92,1.92,0,0,1-2.69,0Z" style="fill: rgb(166, 166, 166); transform-origin: 155.02px 316.36px;" id="elvu8qscqiiir" class="animable"></path><path d="M158.79,318.29a.39.39,0,0,1,.4.4.4.4,0,1,1-.8,0A.39.39,0,0,1,158.79,318.29Z" style="fill: rgb(166, 166, 166); transform-origin: 158.79px 318.69px;" id="ell6ctpdefpca" class="animable"></path><path d="M159.93,316.29a3.61,3.61,0,0,1,.54-2,1.59,1.59,0,0,1,2.8,0,3.7,3.7,0,0,1,.54,2,3.63,3.63,0,0,1-.54,1.95,1.58,1.58,0,0,1-2.8,0A3.55,3.55,0,0,1,159.93,316.29Zm.4,0a3.19,3.19,0,0,0,.47,1.74,1.34,1.34,0,0,0,1.07.67,1.37,1.37,0,0,0,1.07-.67,3.39,3.39,0,0,0,0-3.48,1.34,1.34,0,0,0-1.07-.67,1.32,1.32,0,0,0-1.07.67A3.19,3.19,0,0,0,160.33,316.29Z" style="fill: rgb(166, 166, 166); transform-origin: 161.87px 316.271px;" id="elmovqfbu302" class="animable"></path><path d="M165.61,316.29a3.61,3.61,0,0,1,.54-2,1.59,1.59,0,0,1,2.8,0,3.7,3.7,0,0,1,.54,2,3.63,3.63,0,0,1-.54,1.95,1.58,1.58,0,0,1-2.8,0A3.55,3.55,0,0,1,165.61,316.29Zm.4,0a3.19,3.19,0,0,0,.47,1.74,1.34,1.34,0,0,0,1.07.67,1.37,1.37,0,0,0,1.07-.67,3.39,3.39,0,0,0,0-3.48,1.34,1.34,0,0,0-1.07-.67,1.32,1.32,0,0,0-1.07.67A3.19,3.19,0,0,0,166,316.29Z" style="fill: rgb(166, 166, 166); transform-origin: 167.55px 316.271px;" id="eljeenfh5vbml" class="animable"></path><rect x="188.82" y="263.45" width="43.95" height="43.95" style="fill: rgb(0, 136, 122); transform-origin: 210.795px 285.425px;" id="elpmtqn8a1qji" class="animable"></rect><g id="elcbi15qcm5w9"><rect x="188.82" y="263.45" width="43.95" height="43.95" style="fill: rgb(255, 255, 255); opacity: 0.5; transform-origin: 210.795px 285.425px;" class="animable"></rect></g><rect x="193.71" y="274.87" width="34.43" height="24.46" rx="4.56" style="fill: rgb(255, 255, 255); transform-origin: 210.925px 287.1px;" id="elnvk1alqmi" class="animable"></rect><rect x="197.61" y="271.81" width="26.62" height="3.06" style="fill: rgb(69, 90, 100); transform-origin: 210.92px 273.34px;" id="eltdmjeck1ugn" class="animable"></rect><rect x="193.71" y="280.8" width="34.65" height="12.59" style="fill: rgb(69, 90, 100); transform-origin: 211.035px 287.095px;" id="elsfs6mrnrc2" class="animable"></rect><path d="M221.42,287.1c0,2.93-4.7,5.3-10.5,5.3s-10.5-2.37-10.5-5.3,4.7-5.3,10.5-5.3S221.42,284.17,221.42,287.1Z" style="fill: rgb(255, 255, 255); transform-origin: 210.92px 287.1px;" id="elzd7iv181b4d" class="animable"></path><path d="M202.23,313a.19.19,0,0,1,.2.19v.32a2.62,2.62,0,0,1,1.42.56.2.2,0,0,1-.1.38.22.22,0,0,1-.14-.05,2.17,2.17,0,0,0-1.2-.52v2.23c1.22.26,1.73.72,1.73,1.5a1.58,1.58,0,0,1-1.71,1.48v.62a.19.19,0,0,1-.2.19.19.19,0,0,1-.19-.19v-.63a3,3,0,0,1-1.8-.78.2.2,0,0,1-.09-.16.21.21,0,0,1,.2-.2.24.24,0,0,1,.15.05,2.53,2.53,0,0,0,1.56.73v-2.28c-1.2-.26-1.7-.7-1.7-1.5a1.57,1.57,0,0,1,1.68-1.45v-.3A.19.19,0,0,1,202.23,313Zm-.17,3v-2.18c-.78,0-1.29.48-1.29,1.06S201,315.79,202.06,316Zm.35.49v2.21c.8,0,1.32-.48,1.32-1.09S203.45,316.75,202.41,316.52Z" style="fill: rgb(166, 166, 166); transform-origin: 202.145px 316.45px;" id="el94zhz6ef3nc" class="animable"></path><path d="M208.37,317.94h-3.06a.18.18,0,0,1-.14-.31l3.24-4h0a.18.18,0,0,1,.27,0,.27.27,0,0,1,.06.1s0,0,0,0v3.86h.38a.2.2,0,1,1,0,.39h-.38v1a.2.2,0,0,1-.2.19.2.2,0,0,1-.19-.19Zm0-.39v-3.27l-2.65,3.27Z" style="fill: rgb(166, 166, 166); transform-origin: 207.239px 316.37px;" id="elf9jafufhkgr" class="animable"></path><path d="M211.09,318.29a.39.39,0,0,1,.4.4.4.4,0,0,1-.8,0A.39.39,0,0,1,211.09,318.29Z" style="fill: rgb(166, 166, 166); transform-origin: 211.09px 318.69px;" id="ele2dz23wh2j7" class="animable"></path><path d="M212.43,318.54a.19.19,0,0,1,0-.28.21.21,0,0,1,.29,0,1.54,1.54,0,0,0,1.06.43,1.49,1.49,0,0,0,1.05-.44,1.49,1.49,0,1,0-2.11-2.11.19.19,0,0,1-.28,0,.18.18,0,0,1-.05-.07h0v0s0,0,0-.06v0l.27-2.26a.16.16,0,0,1,.08-.14.19.19,0,0,1,.13-.05h2.6a.19.19,0,0,1,.2.2.19.19,0,0,1-.2.2H213l-.2,1.66a2,2,0,0,1,1-.25,1.88,1.88,0,0,1,1.88,1.89,1.87,1.87,0,0,1-.55,1.35,1.92,1.92,0,0,1-2.69,0Z" style="fill: rgb(166, 166, 166); transform-origin: 214.024px 316.36px;" id="elhhttbugpiob" class="animable"></path><path d="M217.23,316.29a3.61,3.61,0,0,1,.54-2,1.59,1.59,0,0,1,2.8,0,3.7,3.7,0,0,1,.54,2,3.63,3.63,0,0,1-.54,1.95,1.58,1.58,0,0,1-2.8,0A3.55,3.55,0,0,1,217.23,316.29Zm.4,0a3.19,3.19,0,0,0,.47,1.74,1.19,1.19,0,0,0,2.14,0,3.39,3.39,0,0,0,0-3.48,1.19,1.19,0,0,0-2.14,0A3.19,3.19,0,0,0,217.63,316.29Z" style="fill: rgb(166, 166, 166); transform-origin: 219.17px 316.271px;" id="eld0kf66rhtk5" class="animable"></path><rect x="240.78" y="263.45" width="43.95" height="43.95" style="fill: rgb(0, 136, 122); transform-origin: 262.755px 285.425px;" id="elftgpv5dots9" class="animable"></rect><g id="elf8nvnaqyued"><rect x="240.78" y="263.45" width="43.95" height="43.95" style="fill: rgb(255, 255, 255); opacity: 0.5; transform-origin: 262.755px 285.425px;" class="animable"></rect></g><path d="M273.19,291.29V303H252.32V291.29c0-4.09,1-14.84,10.44-14.84S273.19,287.2,273.19,291.29Z" style="fill: rgb(255, 255, 255); transform-origin: 262.755px 289.725px;" id="elm9ti5738ml" class="animable"></path><path d="M273.79,304.52H251.73a1.07,1.07,0,0,1-1.07-1.07h0a1.06,1.06,0,0,1,1.07-1.06h22.06a1.06,1.06,0,0,1,1.06,1.06h0A1.07,1.07,0,0,1,273.79,304.52Z" style="fill: rgb(255, 255, 255); transform-origin: 262.755px 303.455px;" id="elf5bj8al0lw" class="animable"></path><rect x="259.46" y="274.06" width="6.58" height="5.04" style="fill: rgb(255, 255, 255); transform-origin: 262.75px 276.58px;" id="eldyflqlwv5v5" class="animable"></rect><rect x="258.69" y="271.63" width="8.12" height="3.26" style="fill: rgb(69, 90, 100); transform-origin: 262.75px 273.26px;" id="el9gto1uswd76" class="animable"></rect><rect x="261.27" y="268.43" width="2.96" height="3.76" style="fill: rgb(69, 90, 100); transform-origin: 262.75px 270.31px;" id="eltpthz47h6md" class="animable"></rect><path d="M259.63,267.09a1.41,1.41,0,0,0,.09,2.47c1,.59,6.34-.72,6.91-.66s1.89.66,2.07.66.77-.3.74-.57a7,7,0,0,0-3.23-1.93C264.82,266.74,260.77,266.22,259.63,267.09Z" style="fill: rgb(69, 90, 100); transform-origin: 264.192px 268.162px;" id="elle2xuu5e7p" class="animable"></path><path d="M254.17,313a.19.19,0,0,1,.2.19v.32a2.62,2.62,0,0,1,1.42.56.21.21,0,0,1,.11.18.2.2,0,0,1-.21.2.24.24,0,0,1-.14-.05,2.17,2.17,0,0,0-1.2-.52v2.23c1.22.26,1.73.72,1.73,1.5a1.57,1.57,0,0,1-1.71,1.48v.62a.19.19,0,0,1-.2.19.19.19,0,0,1-.19-.19v-.63a3,3,0,0,1-1.8-.78.19.19,0,0,1-.08-.16.2.2,0,0,1,.2-.2.21.21,0,0,1,.14.05,2.56,2.56,0,0,0,1.56.73v-2.28c-1.2-.26-1.7-.7-1.7-1.5a1.57,1.57,0,0,1,1.68-1.45v-.3A.19.19,0,0,1,254.17,313Zm-.17,3v-2.18c-.78,0-1.29.48-1.29,1.06S253,315.79,254,316Zm.35.49v2.21c.8,0,1.32-.48,1.32-1.09S255.39,316.75,254.35,316.52Z" style="fill: rgb(166, 166, 166); transform-origin: 254.09px 316.45px;" id="elp5jgndn5lkm" class="animable"></path><path d="M260.49,313.84,259,315.33a1.88,1.88,0,0,1,1,.51,1.9,1.9,0,0,1,.55,1.35,1.86,1.86,0,0,1-.56,1.34,1.88,1.88,0,0,1-2.68,0,.2.2,0,0,1,.28-.28,1.5,1.5,0,0,0,1.06.43,1.52,1.52,0,0,0,1.06-.43,1.48,1.48,0,0,0,.44-1.06,1.5,1.5,0,0,0-1.5-1.5.21.21,0,0,1-.16-.08h0a.21.21,0,0,1,0-.29l1.39-1.43h-2.15a.2.2,0,0,1,0-.4h2.62a.2.2,0,0,1,.2.2.24.24,0,0,1,0,.09Z" style="fill: rgb(166, 166, 166); transform-origin: 258.912px 316.291px;" id="eld0m3ofo34dg" class="animable"></path><path d="M262.6,318.29a.39.39,0,0,1,.4.4.4.4,0,1,1-.8,0A.39.39,0,0,1,262.6,318.29Z" style="fill: rgb(166, 166, 166); transform-origin: 262.6px 318.69px;" id="elg16283f24sb" class="animable"></path><path d="M263.94,318.54a.19.19,0,0,1,0-.28.21.21,0,0,1,.29,0,1.54,1.54,0,0,0,1.06.43,1.49,1.49,0,0,0,1-.44,1.49,1.49,0,1,0-2.11-2.11.19.19,0,0,1-.28,0,.18.18,0,0,1-.05-.07h0v0s0,0,0-.06v0l.27-2.26a.16.16,0,0,1,.08-.14.19.19,0,0,1,.13-.05H267a.2.2,0,0,1,.2.2.19.19,0,0,1-.2.2h-2.44l-.2,1.66a2,2,0,0,1,1-.25,1.88,1.88,0,0,1,1.88,1.89,1.87,1.87,0,0,1-.55,1.35,1.92,1.92,0,0,1-2.69,0Z" style="fill: rgb(166, 166, 166); transform-origin: 265.545px 316.36px;" id="elr51e5vsufz" class="animable"></path><path d="M268.74,316.29a3.61,3.61,0,0,1,.54-2,1.59,1.59,0,0,1,2.8,0,3.7,3.7,0,0,1,.54,2,3.63,3.63,0,0,1-.54,1.95,1.58,1.58,0,0,1-2.8,0A3.55,3.55,0,0,1,268.74,316.29Zm.4,0a3.19,3.19,0,0,0,.47,1.74,1.35,1.35,0,0,0,1.07.67,1.37,1.37,0,0,0,1.07-.67,3.39,3.39,0,0,0,0-3.48,1.34,1.34,0,0,0-1.07-.67,1.33,1.33,0,0,0-1.07.67A3.19,3.19,0,0,0,269.14,316.29Z" style="fill: rgb(166, 166, 166); transform-origin: 270.68px 316.271px;" id="eld9fl28kql97" class="animable"></path><rect x="163.1" y="358.82" width="95.86" height="25.93" style="fill: rgb(38, 50, 56); transform-origin: 211.03px 371.785px;" id="elqa1m37ehk" class="animable"></rect><path d="M177.84,373.56h-2.76l-.56,1.48a.64.64,0,0,1-.59.4.78.78,0,0,1-.22,0,.65.65,0,0,1-.38-.82l2.52-6.71a.66.66,0,0,1,1.21,0l2.51,6.71a.64.64,0,0,1-.37.82.73.73,0,0,1-.22,0,.61.61,0,0,1-.58-.4Zm-.46-1.25-.93-2.45-.92,2.45Z" style="fill: rgb(255, 255, 255); transform-origin: 176.452px 371.481px;" id="el0gcnvs570ybo" class="animable"></path><path d="M181.13,374.81V368.1a.63.63,0,0,1,.63-.63h1.34a4,4,0,0,1,0,8h-1.34A.63.63,0,0,1,181.13,374.81Zm1.27-.63h.7a2.72,2.72,0,0,0,0-5.44h-.7Z" style="fill: rgb(255, 255, 255); transform-origin: 184.115px 371.47px;" id="elsdir9v1ne58" class="animable"></path><path d="M189,374.81V368.1a.62.62,0,0,1,.62-.63H191a4,4,0,0,1,0,8H189.6A.62.62,0,0,1,189,374.81Zm1.26-.63H191a2.72,2.72,0,0,0,0-5.44h-.71Z" style="fill: rgb(255, 255, 255); transform-origin: 191.999px 371.47px;" id="eleglcwf14jcp" class="animable"></path><path d="M205.45,368.74h-1.81v6.07a.63.63,0,1,1-1.25,0v-6.07h-1.8a.64.64,0,0,1-.63-.64.63.63,0,0,1,.63-.63h4.86a.63.63,0,0,1,.63.63A.65.65,0,0,1,205.45,368.74Z" style="fill: rgb(255, 255, 255); transform-origin: 203.02px 371.495px;" id="elzt39yqehy3q" class="animable"></path><path d="M213.61,368.46a4.18,4.18,0,0,1,0,5.76,3.72,3.72,0,0,1-2.72,1.22,3.86,3.86,0,0,1-2.79-1.22,4.26,4.26,0,0,1,0-5.76,3.81,3.81,0,0,1,2.79-1.21A3.68,3.68,0,0,1,213.61,368.46Zm-.14,2.88a2.94,2.94,0,0,0-.78-2,2.45,2.45,0,0,0-3.64,0,2.89,2.89,0,0,0-.78,2,2.83,2.83,0,0,0,.78,2,2.43,2.43,0,0,0,3.64,0A2.88,2.88,0,0,0,213.47,371.34Z" style="fill: rgb(255, 255, 255); transform-origin: 210.87px 371.345px;" id="eld1layw9qb1" class="animable"></path><path d="M220.07,371.34a4.17,4.17,0,0,1,4.18-4.09,4.31,4.31,0,0,1,2.63.88.66.66,0,0,1-.8,1,2.84,2.84,0,0,0-1.83-.63,3,3,0,0,0-2.05.82,2.83,2.83,0,0,0-.83,2,2.76,2.76,0,0,0,.83,2,3,3,0,0,0,2.05.82,2.85,2.85,0,0,0,1.83-.62.69.69,0,0,1,.91.12.67.67,0,0,1-.11.91,4.26,4.26,0,0,1-2.63.89A4.16,4.16,0,0,1,220.07,371.34Z" style="fill: rgb(255, 255, 255); transform-origin: 223.595px 371.345px;" id="el6kg1buhk0mf" class="animable"></path><path d="M233.09,373.56h-2.76l-.56,1.48a.64.64,0,0,1-.59.4.78.78,0,0,1-.22,0,.64.64,0,0,1-.37-.82l2.51-6.71a.66.66,0,0,1,1.21,0l2.51,6.71a.64.64,0,0,1-.37.82.73.73,0,0,1-.22,0,.61.61,0,0,1-.58-.4Zm-.46-1.25-.93-2.45-.92,2.45Z" style="fill: rgb(255, 255, 255); transform-origin: 231.705px 371.481px;" id="elr1oee3j2x9" class="animable"></path><path d="M241.65,374.5a.61.61,0,0,1-.39.79,1.08,1.08,0,0,1-.25,0h0a.86.86,0,0,1-.44-.13,1.07,1.07,0,0,1-.36-.4,3,3,0,0,1-.24-1.36.92.92,0,0,0-.14-.49,1,1,0,0,0-.34-.33,2.5,2.5,0,0,0-.64-.28h-1.34v2.47a.64.64,0,0,1-.64.63.62.62,0,0,1-.62-.63V368.1a.62.62,0,0,1,.62-.63h2a2.44,2.44,0,0,1,1.55,4.32,2,2,0,0,1,.4.42,2.21,2.21,0,0,1,.37,1.23,2.48,2.48,0,0,0,0,.67A.59.59,0,0,1,241.65,374.5Zm-1.59-4.58a1.17,1.17,0,0,0-1.17-1.18h-1.4v2.34h1.4A1.16,1.16,0,0,0,240.06,369.92Z" style="fill: rgb(255, 255, 255); transform-origin: 238.968px 371.435px;" id="elbsogpp5031g" class="animable"></path><path d="M248.15,368.74h-1.81v6.07a.63.63,0,0,1-1.26,0v-6.07h-1.8a.63.63,0,0,1-.62-.64.62.62,0,0,1,.62-.63h4.87a.63.63,0,0,1,.62.63A.64.64,0,0,1,248.15,368.74Z" style="fill: rgb(255, 255, 255); transform-origin: 245.715px 371.455px;" id="eldqnu1to2vti" class="animable"></path></g><g id="freepik--Character--inject-82" class="animable" style="transform-origin: 310.59px 276.993px;"><path d="M321.42,446.12c2.18.7,64.2-.1,66.54-1.63.9-.57,1.31-9.61,1.49-20.56v-.34c0-2.25.07-4.58.08-6.93,0-.32,0-.65,0-1,.08-15.79-.17-32.18-.17-32.18l-41.49.42,1.25,31.87.05,1.27.25,6.59,0,.68s-23.61,10.93-26,12.88S319.24,445.43,321.42,446.12Z" style="fill: rgb(255, 196, 192); transform-origin: 354.991px 414.928px;" id="el45msyla05zs" class="animable"></path><path d="M321.42,446.12c2.18.7,64.2-.1,66.54-1.63.9-.57,1.31-9.61,1.49-20.56v-.34c0-2.25.07-4.58.08-6.93,0-.32,0-.65,0-1l-40.41.11.05,1.27.25,6.59,0,.68s-23.61,10.93-26,12.88S319.24,445.43,321.42,446.12Z" style="fill: rgb(235, 235, 235); transform-origin: 354.983px 431.018px;" id="el849qh2ogcsd" class="animable"></path><path d="M321.42,446.12c1.35.44,25.37.29,44.18-.24,11.75-.32,21.45-.8,22.36-1.39s1.3-9.36,1.48-20.1c0-.15,0-.3,0-.45v-.35l-40,.07v.69s-23.6,10.92-26,12.87S319.25,445.43,321.42,446.12Z" style="fill: rgb(0, 136, 122); transform-origin: 354.942px 434.984px;" id="el5owab9u4edk" class="animable"></path><path d="M322.09,443.71c10.45-.4,52.64-1,63-.59.08,0,.08.07,0,.07-10.35.62-52.55.87-63,.69C321.87,443.87,321.87,443.71,322.09,443.71Z" style="fill: rgb(38, 50, 56); transform-origin: 353.537px 443.46px;" id="elk0doboe9h39" class="animable"></path><path d="M345,423.83c4.1-.82,9.14-.25,12.32,2.64.13.11,0,.29-.17.25A58,58,0,0,0,345,424.35.26.26,0,0,1,345,423.83Z" style="fill: rgb(38, 50, 56); transform-origin: 351.056px 425.107px;" id="el4j38p4ny647" class="animable"></path><path d="M342,425.66c4.11-.82,9.15-.25,12.33,2.64.12.11,0,.28-.17.24a58.23,58.23,0,0,0-12.13-2.36A.26.26,0,0,1,342,425.66Z" style="fill: rgb(38, 50, 56); transform-origin: 348.067px 426.932px;" id="el4m11005pryk" class="animable"></path><path d="M339.09,427.49c4.1-.82,9.14-.25,12.32,2.64.13.11,0,.28-.17.24A58.23,58.23,0,0,0,339.11,428,.26.26,0,0,1,339.09,427.49Z" style="fill: rgb(38, 50, 56); transform-origin: 345.176px 428.762px;" id="el5eg92co8vlx" class="animable"></path><path d="M341.43,420.77c2.94,2.22,6.74,3.1,10.15,4.31a.51.51,0,0,0,.64-.52c.07,0,.13-.07.1-.15a22,22,0,0,0-6.46-9.34c-1.74-1.42-4.76-2.39-6.35-.14S339.72,419.47,341.43,420.77Zm-1.09-3.3c-.78-4.51,4.1-2.2,5.33-1.1a23.16,23.16,0,0,1,2.21,2.33,66.17,66.17,0,0,1,3.9,5.37c-1.64-.7-3.33-1.25-5-1.89C344.8,421.42,340.77,420,340.34,417.47Z" style="fill: rgb(38, 50, 56); transform-origin: 345.611px 419.345px;" id="el26vjaw13ptq" class="animable"></path><path d="M366,418c-1-2.55-4.19-2.31-6.21-1.33a22.07,22.07,0,0,0-8.43,7.61.11.11,0,0,0,.06.17.5.5,0,0,0,.5.65c3.6-.39,7.5-.37,10.87-1.86C364.73,422.33,366.94,420.38,366,418Zm-8.74,5.38c-1.77.24-3.54.39-5.3.69,1.65-1.47,3.23-3,5-4.33a24.64,24.64,0,0,1,2.68-1.75c1.46-.79,6.74-1.91,4.94,2.29C363.59,422.56,359.33,423.06,357.23,423.34Z" style="fill: rgb(38, 50, 56); transform-origin: 358.781px 420.54px;" id="elobugjwpklv" class="animable"></path><path d="M327.28,435.45a8.43,8.43,0,0,1,6.3,2.47,8.17,8.17,0,0,1,2.42,5.56c0,.06-.11.06-.12,0a9.72,9.72,0,0,0-8.6-7.89A.07.07,0,0,1,327.28,435.45Z" style="fill: rgb(38, 50, 56); transform-origin: 331.605px 439.484px;" id="el892753eohhq" class="animable"></path><path d="M382.41,433.63c4.7-.05,4.79,7.26.08,7.31S377.7,433.69,382.41,433.63Z" style="fill: rgb(38, 50, 56); transform-origin: 382.448px 437.285px;" id="el4xyv2yznuhp" class="animable"></path><path d="M365.6,445.88c11.75-.32,21.45-.8,22.36-1.39s1.3-9.36,1.48-20.1C384.62,428.69,372.65,439.36,365.6,445.88Z" style="fill: rgb(38, 50, 56); transform-origin: 377.52px 435.135px;" id="elz97q836cm1l" class="animable"></path><path d="M402.1,204.86s-9.31,104.8-10.83,112.8c-.35,1.82-.57,11.72-.71,24.46-.32,27.78-.13,77.88-.13,77.88H346.71s1.3-86.81,3.23-102.79,14.31-112.35,14.31-112.35Z" style="fill: rgb(69, 90, 100); transform-origin: 374.405px 312.43px;" id="elbyrt6k4w06q" class="animable"></path><path d="M348.69,412.38c6.82-.14,4.86-.19,11.68-.26,3.34,0,25.28-.22,28.4.29.07,0,.07.13,0,.14-3.12.52-25.06.33-28.4.3-6.82-.07-4.86-.12-11.68-.27A.1.1,0,0,1,348.69,412.38Z" style="fill: rgb(38, 50, 56); transform-origin: 368.706px 412.491px;" id="elgguqd126emi" class="animable"></path><path d="M382.12,362.76l.15-19c0-6.14,0-12.29.32-18.42.6-12.43,3.12-24.64,4.91-36.92s3.29-24.63,4.64-37c1.52-13.85,2.86-27.73,4.29-41.59,0-.09.15-.09.14,0-2.05,24.75-4.35,49.49-7.78,74.09q-1.28,9.18-2.79,18.32c-1,6.17-2,12.35-2.52,18.58s-.56,12.24-.62,18.36q-.11,9.51-.19,19c-.14,14.08-.27,35.75-.41,49.82a.21.21,0,0,1-.42,0C381.93,395.46,382,375.31,382.12,362.76Z" style="fill: rgb(38, 50, 56); transform-origin: 389.205px 308.986px;" id="elos37i62j33f" class="animable"></path><path d="M411.32,204.86s-18.53,104.8-20.05,112.8c-.35,1.82-.57,11.72-.71,24.46v0L369.72,204.86Z" style="fill: rgb(38, 50, 56); transform-origin: 390.52px 273.49px;" id="elmgw6urk3k6r" class="animable"></path><path d="M372.19,449.82c2.22.54,64-4.65,66.25-6.35.86-.62.63-9.67,0-20.6,0-.12,0-.23,0-.34-.12-2.26-.25-4.58-.41-6.92,0-.33-.05-.65-.06-1-1-15.76-2.44-32.08-2.44-32.08l-41.36,3.35,3.5,31.7.14,1.26.72,6.56.07.68s-22.77,12.57-25,14.69S370,449.28,372.19,449.82Z" style="fill: rgb(255, 196, 192); transform-origin: 405.042px 416.195px;" id="elhfra2rrzv25" class="animable"></path><path d="M372.19,449.82c2.22.54,64-4.65,66.25-6.35.86-.62.63-9.67,0-20.6,0-.12,0-.23,0-.34-.12-2.26-.25-4.58-.41-6.92,0-.33-.05-.65-.06-1l-40.3,3,.14,1.26.72,6.56.07.68s-22.77,12.57-25,14.69S370,449.28,372.19,449.82Z" style="fill: rgb(235, 235, 235); transform-origin: 405.042px 432.235px;" id="el9i4a0d332o" class="animable"></path><path d="M372.19,449.82c2.22.54,64-4.65,66.25-6.35.86-.62.63-9.67,0-20.6,0-.12,0-.23,0-.34l-39.91,2.9.07.68s-22.77,12.57-25,14.69S370,449.28,372.19,449.82Z" style="fill: rgb(0, 136, 122); transform-origin: 405.042px 436.195px;" id="el0p3yy8a0y1x" class="animable"></path><path d="M372.69,447.36c10.39-1.13,52.44-4.71,62.8-5,.09,0,.09.05,0,.06-10.28,1.35-52.35,4.59-62.8,5.15C372.48,447.54,372.47,447.39,372.69,447.36Z" style="fill: rgb(38, 50, 56); transform-origin: 404.043px 444.965px;" id="elwkflayneqd8" class="animable"></path><path d="M394.11,425.92c4-1.11,9.1-.9,12.48,1.75.13.11,0,.29-.15.26a58.16,58.16,0,0,0-12.27-1.49A.27.27,0,0,1,394.11,425.92Z" style="fill: rgb(38, 50, 56); transform-origin: 400.29px 426.61px;" id="el8djkqt06a0o" class="animable"></path><path d="M391.3,428c4-1.11,9.1-.9,12.48,1.76.13.1,0,.28-.15.25a58.16,58.16,0,0,0-12.27-1.49A.27.27,0,0,1,391.3,428Z" style="fill: rgb(38, 50, 56); transform-origin: 397.48px 428.69px;" id="ellbhyj80npaj" class="animable"></path><path d="M388.49,430c4-1.11,9.1-.9,12.48,1.76.13.1,0,.29-.15.26a57.52,57.52,0,0,0-12.27-1.5A.27.27,0,0,1,388.49,430Z" style="fill: rgb(38, 50, 56); transform-origin: 394.67px 430.695px;" id="elqgl8fuj6gd9" class="animable"></path><path d="M390.35,423.11c3.09,2,6.95,2.61,10.44,3.58.36.1.61-.25.6-.56a.11.11,0,0,0,.08-.16,22,22,0,0,0-7.1-8.86c-1.84-1.29-4.92-2-6.34.31S388.55,421.93,390.35,423.11ZM389,419.9c-1.1-4.44,3.93-2.48,5.24-1.48a22.18,22.18,0,0,1,2.37,2.17,64.46,64.46,0,0,1,4.27,5.08c-1.69-.58-3.41-1-5.12-1.53C393.76,423.52,389.64,422.34,389,419.9Z" style="fill: rgb(38, 50, 56); transform-origin: 394.511px 421.309px;" id="elo5ch1qtp95" class="animable"></path><path d="M414.63,418.57c-1.2-2.47-4.34-2-6.28-.88a21.93,21.93,0,0,0-7.88,8.18.11.11,0,0,0,.07.16c0,.32.18.69.55.62,3.56-.65,7.45-.9,10.71-2.63C413.7,423,415.77,420.91,414.63,418.57Zm-8.34,6c-1.74.36-3.5.64-5.23,1.07a63,63,0,0,1,4.71-4.68,22.93,22.93,0,0,1,2.55-1.95c1.4-.88,6.58-2.37,5.09,1.95C412.58,423.33,408.37,424.13,406.29,424.56Z" style="fill: rgb(38, 50, 56); transform-origin: 407.706px 421.719px;" id="elu29biqefdxm" class="animable"></path><path d="M376.3,439.09a8.36,8.36,0,0,1,6.49,1.91,8.09,8.09,0,0,1,2.89,5.32c0,.07-.11.08-.12,0a9.72,9.72,0,0,0-9.25-7.12A.07.07,0,0,1,376.3,439.09Z" style="fill: rgb(38, 50, 56); transform-origin: 380.979px 442.698px;" id="el2c7bda15cln" class="animable"></path><path d="M431.06,432.49c4.68-.46,5.41,6.81.72,7.27S426.37,433,431.06,432.49Z" style="fill: rgb(38, 50, 56); transform-origin: 431.418px 436.125px;" id="elbqmyar0mtmb" class="animable"></path><path d="M396.76,422.36l43.67-1.85s-11.92-95.85-12.14-101.74c-.57-15.28-10.73-113.95-10.73-113.95H364.21s3.37,22.78,9.13,37.22a67,67,0,0,1,11.16,5.1s5,65.25,5.18,73.39C390.05,336.62,396.76,422.36,396.76,422.36Z" style="fill: rgb(69, 90, 100); transform-origin: 402.32px 313.59px;" id="eltzhffhwbm9i" class="animable"></path><path d="M397.92,414.36c6.81-.43,4.85-.4,11.66-.76,3.34-.17,25.25-1.29,28.39-.91a.07.07,0,0,1,0,.14c-3.09.65-25,1.39-28.36,1.5-6.82.22-4.86.08-11.68.23A.1.1,0,0,1,397.92,414.36Z" style="fill: rgb(38, 50, 56); transform-origin: 417.932px 413.586px;" id="elkkqpz9o6a2" class="animable"></path><path d="M413.65,210.67c2,24.85,4,49.7,6.29,74.53s4.95,49.79,8.2,74.6c1.81,13.85,3.83,33.37,6,47.18,0,.09-.13.13-.15,0-4.4-24.54-7.63-55-10.39-79.75s-5-49.6-7-74.44c-1.13-14.05-2.15-28.11-3.23-42.16C413.32,210.47,413.63,210.47,413.65,210.67Z" style="fill: rgb(38, 50, 56); transform-origin: 423.752px 308.789px;" id="el032lchag9bbx" class="animable"></path><path d="M371.43,241.05a83,83,0,0,1,13.07,6.09c.16.09.05.34-.12.26-4.41-1.89-8.89-3.69-13.19-5.82A.29.29,0,0,1,371.43,241.05Z" style="fill: rgb(38, 50, 56); transform-origin: 377.798px 244.22px;" id="el83gt6ghrn4s" class="animable"></path><path d="M370,210.85c0-.15.28-.18.28,0,0,5.22.3,9.82.74,14.7.2,2.27,2,14.8,6,13.89.66-.16,1-.8,1.1-1.8a15.86,15.86,0,0,0-.53-3.84c-.43-2.62-.78-5.25-1-7.9a72,72,0,0,1,.16-14.82.13.13,0,0,1,.26,0,135.82,135.82,0,0,0,1.19,20.46c.49,3.26,2.14,8.17-1.27,8.67s-5.72-7.71-6.14-10A74.94,74.94,0,0,1,370,210.85Z" style="fill: rgb(38, 50, 56); transform-origin: 374.368px 225.479px;" id="eld41ao02jrr7" class="animable"></path><path d="M376.9,239.75a20.45,20.45,0,0,1,.89,2.6,6,6,0,0,1,.37,2.14.16.16,0,0,1-.28,0,7.54,7.54,0,0,1-.91-2.07c-.3-.81-.62-1.6-.89-2.42A.44.44,0,0,1,376.9,239.75Z" style="fill: rgb(38, 50, 56); transform-origin: 377.12px 242.051px;" id="el4o7j4p6ews8" class="animable"></path><polygon points="200.01 424.77 199.91 422.77 305.38 417.35 297.56 370.35 299.53 370.03 307.72 419.24 200.01 424.77" style="fill: rgb(199, 199, 199); transform-origin: 253.815px 397.4px;" id="elucc5u2p4gvn" class="animable"></polygon><g id="elsxujjn60jmf"><circle cx="206" cy="429.32" r="11.03" style="fill: rgb(55, 71, 79); transform-origin: 206px 429.32px; transform: rotate(-38.03deg);" class="animable"></circle></g><path d="M201,429.32a5,5,0,1,0,5-5A5,5,0,0,0,201,429.32Z" style="fill: rgb(235, 235, 235); transform-origin: 206px 429.32px;" id="elacpdux91x7p" class="animable"></path><g id="el8ptvogct067"><circle cx="290.51" cy="429.32" r="11.03" style="fill: rgb(55, 71, 79); transform-origin: 290.51px 429.32px; transform: rotate(-13.35deg);" class="animable"></circle></g><path d="M285.48,429.32a5,5,0,1,0,5-5A5,5,0,0,0,285.48,429.32Z" style="fill: rgb(235, 235, 235); transform-origin: 290.48px 429.32px;" id="eltzqsthhhtqb" class="animable"></path><polygon points="218.89 436.93 218.78 434.93 324.26 429.51 314 367.88 315.98 367.55 326.6 431.39 218.89 436.93" style="fill: rgb(199, 199, 199); transform-origin: 272.69px 402.24px;" id="el3olwfd7on98" class="animable"></polygon><g id="elyr2yl41ww8"><circle cx="224.88" cy="441.48" r="11.03" style="fill: rgb(55, 71, 79); transform-origin: 224.88px 441.48px; transform: rotate(-39.68deg);" class="animable"></circle></g><path d="M219.85,441.48a5,5,0,1,0,5-5A5,5,0,0,0,219.85,441.48Z" style="fill: rgb(235, 235, 235); transform-origin: 224.85px 441.48px;" id="elnyv4buooxgh" class="animable"></path><g id="elfm260o7pjko"><circle cx="309.38" cy="441.48" r="11.03" style="fill: rgb(55, 71, 79); transform-origin: 309.38px 441.48px; transform: rotate(-67.0273deg);" class="animable"></circle></g><path d="M304.36,441.48a5,5,0,1,0,5-5A5,5,0,0,0,304.36,441.48Z" style="fill: rgb(235, 235, 235); transform-origin: 309.36px 441.48px;" id="el8r4409z58ri" class="animable"></path><path d="M196.24,364.06l-15.41-70.24,105-17,1.06,73.38-.86.13Zm-13-68.61L197.8,361.8l87.09-13.29-1-69.31Z" style="fill: rgb(166, 166, 166); transform-origin: 233.86px 320.44px;" id="elmq3ftkmtcx9" class="animable"></path><g id="elpf8mv6djit"><rect x="211.05" y="290.24" width="2" height="70" style="fill: rgb(166, 166, 166); transform-origin: 212.05px 325.24px; transform: rotate(-8.89deg);" class="animable"></rect></g><g id="elcgj8p2hthdp"><rect x="237.61" y="285.91" width="2" height="70.3" style="fill: rgb(166, 166, 166); transform-origin: 238.61px 321.06px; transform: rotate(-6.29deg);" class="animable"></rect></g><g id="eltxbv09hukep"><rect x="262.74" y="282.01" width="2" height="70.54" style="fill: rgb(166, 166, 166); transform-origin: 263.74px 317.28px; transform: rotate(-2.47deg);" class="animable"></rect></g><g id="el93k2cyjqlh8"><rect x="186.35" y="308.02" width="100.35" height="2" style="fill: rgb(166, 166, 166); transform-origin: 236.525px 309.02px; transform: rotate(-10.26deg);" class="animable"></rect></g><g id="elhgyfceqqr5j"><rect x="191.61" y="332.68" width="94.8" height="2" style="fill: rgb(166, 166, 166); transform-origin: 239.01px 333.68px; transform: rotate(-8.45deg);" class="animable"></rect></g><path d="M329.64,367.33,284.9,350.05V276.8l68.31,19.81ZM286.9,348.68l41.51,16L350.66,298,286.9,279.46Z" style="fill: rgb(219, 219, 219); transform-origin: 319.055px 322.065px;" id="elaqpjr3k914f" class="animable"></path><g id="elzhxk5dj66uh"><rect x="313.76" y="280.24" width="2" height="61.8" style="fill: rgb(219, 219, 219); transform-origin: 314.76px 311.14px; transform: rotate(-69.05deg);" class="animable"></rect></g><g id="elegkxnpb1lii"><rect x="309.64" y="310.09" width="2" height="53.45" style="fill: rgb(219, 219, 219); transform-origin: 310.64px 336.815px; transform: rotate(-67.81deg);" class="animable"></rect></g><g id="el1hc1t4zr0ij"><rect x="268.66" y="318.55" width="70.63" height="2" style="fill: rgb(219, 219, 219); transform-origin: 303.975px 319.55px; transform: rotate(-82.42deg);" class="animable"></rect></g><g id="eln0fbw9bcoz"><rect x="287.34" y="324.9" width="71.28" height="2" style="fill: rgb(219, 219, 219); transform-origin: 322.98px 325.9px; transform: rotate(-77.31deg);" class="animable"></rect></g><g id="eld73snzs62rs"><rect x="264.77" y="248.74" width="59.26" height="2" style="fill: rgb(219, 219, 219); transform-origin: 294.4px 249.74px; transform: rotate(-73.32deg);" class="animable"></rect></g><g id="elq3wtr2ixyck"><rect x="328.62" y="265" width="65.03" height="2" style="fill: rgb(219, 219, 219); transform-origin: 361.135px 266px; transform: rotate(-73.32deg);" class="animable"></rect></g><g id="el01qtj1js0gim"><rect x="334.77" y="188.98" width="4" height="78.24" style="fill: rgb(38, 50, 56); transform-origin: 336.77px 228.1px; transform: rotate(-78.37deg);" class="animable"></rect></g><polygon points="254.22 301.28 273.18 309.92 304.24 303.7 285.61 298.42 254.22 301.28" style="fill: rgb(0, 136, 122); transform-origin: 279.23px 304.17px;" id="elvms19665vui" class="animable"></polygon><g id="el1b6ncqs24ek"><polygon points="254.22 301.28 273.18 309.92 304.24 303.7 285.61 298.42 254.22 301.28" style="opacity: 0.1; transform-origin: 279.23px 304.17px;" class="animable"></polygon></g><path d="M287,304c.24,8,2.12,46.27-5.27,47-2.61.27-5-5.69-6.82-14.55-.18-.87-.36-1.77-.53-2.69-.61-3.33-1.15-7-1.59-10.81q-.17-1.32-.3-2.67c-.37-3.55-.66-7.2-.86-10.86-.05-.89-.1-1.77-.13-2.66s-.07-1.51-.09-2.26c-.08-2.48-.13-5-.13-7.41,0-.9,0-1.8,0-2.69.06-4.95.26-9.73.61-14.1.07-.86.15-1.69.22-2.5,1.08-11.19,3.19-19.27,6.09-20.12C284.47,255.87,286.42,284.07,287,304Z" style="fill: rgb(230, 163, 110); transform-origin: 279.334px 304.303px;" id="elvlakf6084wo" class="animable"></path><path d="M282.2,331.62a1.28,1.28,0,0,1-.3.17.27.27,0,0,1-.13.1,15.87,15.87,0,0,0-6.85,4.59c-.18-.87-.36-1.77-.53-2.69a10.3,10.3,0,0,1,7.53-2.64.08.08,0,0,1,.07,0h.11A.24.24,0,0,1,282.2,331.62Z" style="fill: rgb(204, 138, 88); transform-origin: 278.39px 333.806px;" id="elflwkuvxghb5" class="animable"></path><path d="M281.24,320.13a1.23,1.23,0,0,1-.32.07.2.2,0,0,1-.15.05,14.55,14.55,0,0,0-7.72,2.54l-.25.19q-.17-1.32-.3-2.67a10.25,10.25,0,0,1,8.57-.72.12.12,0,0,1,.06.06l.11,0A.25.25,0,0,1,281.24,320.13Z" style="fill: rgb(204, 138, 88); transform-origin: 276.96px 320.976px;" id="eli3qhvezbyag" class="animable"></path><path d="M280.7,308.48a1.22,1.22,0,0,1-.33,0,.19.19,0,0,1-.15,0,14.19,14.19,0,0,0-8,.69,5.69,5.69,0,0,0-.56.26c-.05-.89-.1-1.77-.13-2.66a10.55,10.55,0,0,1,9.11,1.13.09.09,0,0,1,.05.07l.1.06C280.9,308.15,281,308.43,280.7,308.48Z" style="fill: rgb(204, 138, 88); transform-origin: 276.214px 307.821px;" id="eleszidxdu7mp" class="animable"></path><path d="M280.23,296.2a1.22,1.22,0,0,1-.33,0,.16.16,0,0,1-.15,0,14.19,14.19,0,0,0-8,.69,3.55,3.55,0,0,0-.44.21c0-.9,0-1.8,0-2.69a10.46,10.46,0,0,1,8.85,1.21s.05.05.06.07l.09.06C280.43,295.87,280.48,296.15,280.23,296.2Z" style="fill: rgb(204, 138, 88); transform-origin: 275.86px 295.513px;" id="elxg2qfo2nyqi" class="animable"></path><path d="M280.24,281.69a1.14,1.14,0,0,1-.33-.07.3.3,0,0,1-.16,0,14.45,14.45,0,0,0-7.84-1.27c.07-.86.15-1.69.22-2.5a11,11,0,0,1,8.12,3.29s0,.06,0,.08a.6.6,0,0,0,.08.08C280.47,281.42,280.49,281.7,280.24,281.69Z" style="fill: rgb(204, 138, 88); transform-origin: 276.171px 279.768px;" id="ellb2eghq1elj" class="animable"></path><path d="M298.8,308.79c-1.1,7.87-5.66,45.67-13.07,44.66-2.61-.34-4-6.73-4.26-15.81,0-.89-.06-1.81-.07-2.75,0-3.4,0-7.09.24-10.93,0-.89.09-1.78.15-2.68.24-3.55.56-7.18,1-10.81.11-.88.21-1.75.32-2.62s.19-1.49.29-2.22c.34-2.45.71-4.88,1.12-7.27.16-.87.31-1.76.46-2.62.88-4.83,1.89-9.43,3-13.62.2-.82.42-1.61.63-2.39,2.94-10.66,6.36-18.06,9.36-18.2C304.36,261.22,301.56,289.21,298.8,308.79Z" style="fill: rgb(237, 170, 118); transform-origin: 291.627px 307.499px;" id="elq40rt4outin" class="animable"></path><path d="M289.44,334.62a.77.77,0,0,1-.32.09.21.21,0,0,1-.15.07,14.64,14.64,0,0,0-7.5,2.86c0-.89-.06-1.81-.07-2.75a10,10,0,0,1,7.85-.8.12.12,0,0,1,.06.06l.1,0A.24.24,0,0,1,289.44,334.62Z" style="fill: rgb(204, 138, 88); transform-origin: 285.509px 335.636px;" id="elccvuzv4172g" class="animable"></path><path d="M290.43,323.17a1,1,0,0,1-.34,0,.19.19,0,0,1-.15,0,14.09,14.09,0,0,0-8,.65l-.28.12c0-.89.09-1.78.15-2.68a10.41,10.41,0,0,1,8.55,1.33s.05.05.06.07l.09.06C290.62,322.84,290.68,323.12,290.43,323.17Z" style="fill: rgb(204, 138, 88); transform-origin: 286.133px 322.405px;" id="el2echm5984xo" class="animable"></path><path d="M291.84,311.68a1.16,1.16,0,0,1-.32-.08.16.16,0,0,1-.15,0,14.38,14.38,0,0,0-8-1.22l-.6.11c.11-.88.21-1.75.32-2.62a11.12,11.12,0,0,1,8.77,3.26.09.09,0,0,1,0,.08.3.3,0,0,0,.08.08C292.09,311.4,292.1,311.69,291.84,311.68Z" style="fill: rgb(204, 138, 88); transform-origin: 287.408px 309.758px;" id="elayxti1hw0f" class="animable"></path><path d="M293.44,299.58a1.16,1.16,0,0,1-.32-.08.18.18,0,0,1-.16,0,14.42,14.42,0,0,0-8-1.23,3.56,3.56,0,0,0-.47.1c.16-.87.31-1.76.46-2.62a11,11,0,0,1,8.5,3.28.1.1,0,0,1,.05.08l.08.08C293.69,299.3,293.7,299.59,293.44,299.58Z" style="fill: rgb(204, 138, 88); transform-origin: 289.072px 297.656px;" id="elvz7wx1nd0yp" class="animable"></path><path d="M295.87,285.42a1.77,1.77,0,0,1-.31-.15.3.3,0,0,1-.15,0,15.3,15.3,0,0,0-7.49-3.1c.2-.82.42-1.61.63-2.39a12.06,12.06,0,0,1,7.43,5.13.14.14,0,0,1,0,.1l.06.09C296.15,285.21,296.12,285.49,295.87,285.42Z" style="fill: rgb(204, 138, 88); transform-origin: 292.01px 282.606px;" id="eluq56dhtl9v" class="animable"></path><path d="M254.22,301.28s1.19,38.22.78,39.68-2.68,19.36-2.47,19.86,18.18,10.81,18.78,10.22S273,344.67,273,341.49s.21-31.57.21-31.57Z" style="fill: rgb(0, 136, 122); transform-origin: 262.863px 336.172px;" id="eltht2nma1qa" class="animable"></path><path d="M273.18,309.92,271.31,371s29.16-8.61,29.41-9.09,1.7-17.81,1.33-20.51,2.19-37.74,2.19-37.74Z" style="fill: rgb(0, 136, 122); transform-origin: 287.775px 337.33px;" id="elupvbg154dbg" class="animable"></path><g id="el0d2b3q4wnko"><path d="M273.18,309.92,271.31,371s29.16-8.61,29.41-9.09,1.7-17.81,1.33-20.51,2.19-37.74,2.19-37.74Z" style="opacity: 0.1; transform-origin: 287.775px 337.33px;" class="animable"></path></g><path d="M232.63,379.32l-36.4-15.24-.11-.51-15.37-70.11L226,312ZM198,362.64l32.35,13.54-6.24-62.77-40.55-16.65Z" style="fill: rgb(219, 219, 219); transform-origin: 206.69px 336.39px;" id="el8s21khrhex7" class="animable"></path><g id="elmlcqf9yzsxd"><rect x="199.89" y="299.57" width="2" height="68.07" style="fill: rgb(219, 219, 219); transform-origin: 200.89px 333.605px; transform: rotate(-9.97deg);" class="animable"></rect></g><g id="elpbsq8fys0z7"><rect x="213.57" y="306" width="2" height="66.84" style="fill: rgb(219, 219, 219); transform-origin: 214.57px 339.42px; transform: rotate(-8.1deg);" class="animable"></rect></g><g id="ele1g8xbw4pc"><rect x="210.3" y="333.2" width="2" height="38.78" style="fill: rgb(219, 219, 219); transform-origin: 211.3px 352.59px; transform: rotate(-70.6557deg);" class="animable"></rect></g><g id="el05vjyh8s9ksq"><rect x="206.15" y="304.78" width="2" height="43.02" style="fill: rgb(219, 219, 219); transform-origin: 207.15px 326.29px; transform: rotate(-68.38deg);" class="animable"></rect></g><path d="M232.57,379.29l-8.68-67.45,129.34-15.37-23.61,70.92-.62.08Zm-6.44-65.71,8.17,63.48,93.83-11.5,22.21-66.73Z" style="fill: rgb(235, 235, 235); transform-origin: 288.56px 337.88px;" id="elwql5a6ay50d" class="animable"></path><g id="el6e1v0ymdecl"><rect x="255.66" y="309.14" width="2" height="65.36" style="fill: rgb(235, 235, 235); transform-origin: 256.66px 341.82px; transform: rotate(-4.98deg);" class="animable"></rect></g><g id="el1yvbjrq3r9z"><rect x="253.29" y="337.25" width="66.35" height="2" style="fill: rgb(235, 235, 235); transform-origin: 286.465px 338.25px; transform: rotate(-86.7deg);" class="animable"></rect></g><g id="elbujf6c9yqdo"><rect x="280.68" y="333.91" width="68.61" height="2" style="fill: rgb(235, 235, 235); transform-origin: 314.985px 334.91px; transform: rotate(-79.3deg);" class="animable"></rect></g><g id="el2rta5onnjx2"><rect x="226.78" y="326.3" width="117.7" height="2" style="fill: rgb(235, 235, 235); transform-origin: 285.63px 327.3px; transform: rotate(-6.42deg);" class="animable"></rect></g><g id="elokrtoh3kvcs"><rect x="229.32" y="351.44" width="106.35" height="2" style="fill: rgb(235, 235, 235); transform-origin: 282.495px 352.44px; transform: rotate(-5.97deg);" class="animable"></rect></g><path d="M377.6,151.37c-5.37,8.44-25.24,39-37.64,39-7.46,0-32.76-12.72-38.34-17-6.53-5,11-20.79,15.48-18.93,5.55,2.29,20.75,11.16,24.3,11.16,3.17,0,12.25-10.19,29.53-21.44C379.81,138.3,382.23,144.09,377.6,151.37Z" style="fill: rgb(255, 196, 192); transform-origin: 340.041px 166.062px;" id="els9fpwom9ywe" class="animable"></path><path d="M302.26,173.78c-2.34-1.12-12.63-7.2-15.12-9.53s-9.15-9.57-7.55-11.65,3.71-.13,3.71-.13S281,149,282.76,147s5,1.21,5,1.21-2.13-3.77-.2-5.59,4.61,1.9,4.61,1.9-2.11-3.36.11-4.19c2.67-1,5.86,5.63,8.8,8,.67.54,14.3,10,14.3,10Z" style="fill: rgb(255, 196, 192); transform-origin: 297.362px 157.004px;" id="elbwfhhkjf8eu" class="animable"></path><path d="M291.93,144.22c2.36,4.87,4.24,6.59,8.76,9.4.08.06,0,.2-.08.15-4.67-2.35-7.33-4.17-8.92-9.44C291.62,144.07,291.82,144,291.93,144.22Z" style="fill: rgb(38, 50, 56); transform-origin: 296.199px 148.935px;" id="elkyexk1mzqt" class="animable"></path><path d="M287.58,147.84c2.89,4.84,4.9,6.72,9.42,10,.06,0,0,.16-.08.12-4.7-2.86-7.31-4.74-9.56-10C287.25,147.79,287.45,147.62,287.58,147.84Z" style="fill: rgb(38, 50, 56); transform-origin: 292.176px 152.851px;" id="el66ic14gaqi" class="animable"></path><path d="M283.53,152.63c3.14,4.49,5.26,6.65,10.06,9.28a.11.11,0,0,1-.09.19,18.16,18.16,0,0,1-10.09-9.36C283.25,152.44,283.34,152.35,283.53,152.63Z" style="fill: rgb(38, 50, 56); transform-origin: 288.477px 157.281px;" id="elubnwljt8ncs" class="animable"></path><path d="M282.14,153.74c3.44,11.21,14,9.78,17,8.86s12.52-5.65,9.07-16.86-14.7-8.62-16.71-8C289.23,138.43,278.7,142.53,282.14,153.74Z" style="fill: rgb(0, 136, 122); transform-origin: 295.204px 150.126px;" id="el2i4tjbuk3um" class="animable"></path><path d="M292.47,139.27s.47,4.22,7.86,1.69C300.33,141,295.33,135.64,292.47,139.27Z" style="fill: rgb(69, 90, 100); transform-origin: 296.4px 139.888px;" id="elrdo96vp1pl" class="animable"></path><path d="M293.19,141s3.47.23,2.49-6.11C295.68,134.91,290.66,138.19,293.19,141Z" style="fill: rgb(69, 90, 100); transform-origin: 294.166px 137.946px;" id="elflns55rz7dr" class="animable"></path><path d="M292.91,139.9s-1.21,3.27-6.6-.22C286.31,139.68,291.36,136.44,292.91,139.9Z" style="fill: rgb(69, 90, 100); transform-origin: 289.61px 139.797px;" id="elhdb0zvkoks8" class="animable"></path><path d="M292.68,139.07s-3.25,2.74,3,7.47C295.66,146.54,297.28,139.42,292.68,139.07Z" style="fill: rgb(69, 90, 100); transform-origin: 293.888px 142.805px;" id="el03tk7acnz7v9" class="animable"></path><path d="M292.34,139.68s-4.68-1.31-4.06,6.67C288.28,146.35,295.43,143.87,292.34,139.68Z" style="fill: rgb(69, 90, 100); transform-origin: 290.669px 142.975px;" id="elcigkofkt3lr" class="animable"></path><path d="M293.12,140.66a8.37,8.37,0,0,0-2.91-7.13,2.68,2.68,0,0,0-2.46,2.1s4,2.23,4.26,5.85l.93-.56" style="fill: rgb(69, 90, 100); transform-origin: 290.452px 137.505px;" id="elx613hlg2ypl" class="animable"></path><path d="M320.31,157.8a66.19,66.19,0,0,0-3.37-9.18c-1.47-2.67-10.6-10.61-12.43-8.74-2.36,2.42,2,8.05,4.51,10.52,0,0-5.46,5.6-3.2,10.31S320.31,157.8,320.31,157.8Z" style="fill: rgb(255, 196, 192); transform-origin: 312.071px 150.922px;" id="els86ih6ajucs" class="animable"></path><path d="M304.08,140.76c-.56,3.76,2.93,6.8,5.18,9.38a.31.31,0,0,1-.1.5c-2.14,2.5-4.42,6.65-3.54,10a.08.08,0,0,1-.15.05c-1.43-3.47.48-7.72,3-10.31-2.34-2.61-5.71-5.81-4.41-9.63C304.06,140.73,304.09,140.74,304.08,140.76Z" style="fill: rgb(38, 50, 56); transform-origin: 306.559px 150.736px;" id="elz5n7zywcjhc" class="animable"></path><path d="M349.47,157.11,366.17,172s9.5-11.44,13.44-22.37-5.46-9.62-12.13-5.2S349.47,157.11,349.47,157.11Z" style="fill: rgb(0, 136, 122); transform-origin: 365.007px 156.589px;" id="el5ry5ziplnxt" class="animable"></path><path d="M368,168.42a155.2,155.2,0,0,1-14.12-13.07c-.06,0,0-.14.09-.08,1.2,1.21,8.58,7.5,14.13,13.06C368.19,168.39,368.09,168.48,368,168.42Z" style="fill: rgb(38, 50, 56); transform-origin: 360.996px 161.847px;" id="el4f8jx6njoo" class="animable"></path><path d="M379.6,149.66C375.67,160.59,366.17,172,366.17,172l-7.69-6.87c5.09-7,13.31-18.42,17.4-23.93C379.58,141,381.94,143.18,379.6,149.66Z" style="fill: rgb(38, 50, 56); transform-origin: 369.507px 156.594px;" id="el6tefppvlj3i" class="animable"></path><path d="M358.5,219c1,1,62.5.41,62.81,0,.82-1.11-8.6-40.76-15.67-55.8-9.06-19.29-13.86-20.89-16.72-22-3.66-1.38-13.22-.81-14.79-.1-1.77.8-6.28,9.81-8.39,17C361.5,172.44,357.61,218.07,358.5,219Z" style="fill: rgb(0, 136, 122); transform-origin: 389.866px 179.953px;" id="elsj506ek1spd" class="animable"></path><path d="M398.1,159.08c-.31,18.94-1.11,41.33-6.35,47.65-7.94,9.57-27.78,19.39-35.91,21.2-3.38.75-12.87-24.8-9.24-25.56,7.73-1.62,25.39-8.94,27-10.53s7.68-19.86,12.55-34.15C392,140.5,398.28,148.11,398.1,159.08Z" style="fill: rgb(255, 196, 192); transform-origin: 371.945px 187.756px;" id="el9r5y9ajcr4b" class="animable"></path><path d="M350.73,201.29s-10.21,2.6-16.81,4.62c-3.68,1.12-9.82,3.62-12.14,5.68-3.48,3.08-16.06,18.21-12.46,21.34,3.26,2.83,12.42-11.54,12.42-11.54s-10.52,13.69-6,16.38,12.74-14.93,12.74-14.93-10.5,14.3-5.36,16.33c3.88,1.54,12.19-14,12.19-14s-8.93,12.35-5,14.1c4.33,1.93,12.91-11.92,12.91-11.92,10.72,2.77,16.95-.3,21.13-3C365.38,223.7,350.73,201.29,350.73,201.29Z" style="fill: rgb(255, 196, 192); transform-origin: 336.54px 220.372px;" id="el3bjwh0j538s" class="animable"></path><path d="M325.08,216.43c-1.3,1.56-2.62,3.13-3.77,4.81s-2.25,3.38-3.24,5.15a35.37,35.37,0,0,0-3.19,7.26c1.72-4.39,5.75-10.44,6.9-12.11s2.21-3.4,3.36-5.07C325.17,216.43,325.11,216.39,325.08,216.43Z" style="fill: rgb(38, 50, 56); transform-origin: 320.014px 225.032px;" id="elu80rht7jhg" class="animable"></path><path d="M331.19,220.48c-2.22,1.75-6.87,8.3-8.67,12.69-.07.18,0,.17.14,0,1.4-2.17,7.08-10.57,8.58-12.66C331.26,220.48,331.22,220.45,331.19,220.48Z" style="fill: rgb(38, 50, 56); transform-origin: 326.869px 226.884px;" id="elcphxgizkqpt" class="animable"></path><path d="M337.06,223a31.32,31.32,0,0,0-6.42,10c-.08.18.07.15.17,0,2.08-3.37,3.68-6,6.36-9.92C337.21,223,337.12,223,337.06,223Z" style="fill: rgb(38, 50, 56); transform-origin: 333.899px 228.062px;" id="el9sf1hv711uo" class="animable"></path><path d="M377.55,175.49l22.15,3.31s1.66-14.78-1.05-26.07-9.84-5-13,2.3S377.55,175.49,377.55,175.49Z" style="fill: rgb(0, 136, 122); transform-origin: 388.877px 162.679px;" id="elf5ta4dkcavq" class="animable"></path><path d="M399,174.43a156.7,156.7,0,0,1-19-2.8c-.08,0-.05-.14,0-.12,1.67.32,11.31,1.34,19,2.78C399.14,174.31,399.11,174.43,399,174.43Z" style="fill: rgb(38, 50, 56); transform-origin: 389.522px 172.969px;" id="elrz0r682xfai" class="animable"></path><path d="M380.72,167.9c1-2.51,2.45-6.08,3.28-8.64,0,0,0,0-.06,0-.65,1.33-1.24,2.69-1.81,4.07l.06-.25c.14-.77.26-1.54.34-2.32,0,0,0,0,0,0-.23.76-.42,1.52-.58,2.3-.1.48-.18,1-.25,1.46-.3.73-1.06,2.51-1.35,3.23-.48,1.23-3.21,7.88-3.08,7.91s2.27.25,2.67.32c.11,0,.13-.16,0-.15-.4,0-2.09-.31-2.26-.34.46-1.28,1.05-2.53,1.56-3.8S380.23,169.16,380.72,167.9Z" style="fill: rgb(38, 50, 56); transform-origin: 380.633px 167.62px;" id="el7g7sdnwygfh" class="animable"></path><path d="M401.06,164.13c-.17.67-.31,1.34-.43,2,0,.23-.06.46-.09.7-.06-1.66-.2-3.32-.42-5,0,0-.07,0-.06,0,.18,2.79.11,5.56,0,8.35,0,1.35-.1,2.71-.18,4.06,0,.69-.09,1.39-.12,2.08s-.13,2.35-.13,2.35c-.38-.07-1.66-.23-2.12-.27-.11,0-.11.09,0,.1.39.06,2.35.44,2.36.4,0-.73.19-1.59.26-2.31s.12-1.33.17-2c.1-1.43.18-2.86.23-4.3,0-.78,0-1.57,0-2.36.11-.6.26-1.2.36-1.8s.22-1.36.29-2C401.24,164.05,401.09,164,401.06,164.13Z" style="fill: rgb(38, 50, 56); transform-origin: 399.311px 170.366px;" id="elb42lceas2qr" class="animable"></path><path d="M375.86,150.94c3.41,1,9.68-3.92,12.28-8.08.18-.29-.09-3.41-.24-7.23-.08-2.32-.12-4.9,0-7.26,0-.48-15,2.73-15,2.73a37.86,37.86,0,0,1,.9,9.13,5.61,5.61,0,0,1-.16,1,1.57,1.57,0,0,0,0,.16C373.22,143.18,372.55,150,375.86,150.94Z" style="fill: rgb(255, 196, 192); transform-origin: 380.55px 139.696px;" id="ely72izwcalhp" class="animable"></path><path d="M387,128.38c-.92,4-4,13.43-11.87,13.15a9.66,9.66,0,0,1-1.51-.17.57.57,0,0,1,0-.16,5.83,5.83,0,0,0,.16-1,37.46,37.46,0,0,0-.9-9.15S383.77,128.78,387,128.38Z" style="fill: rgb(38, 50, 56); transform-origin: 379.94px 134.958px;" id="elyavaazxbgka" class="animable"></path><path d="M388.79,109.43c2,5.11.44,20.46-3,24.13-5,5.32-13.82,6.49-18.49.32-4.53-6-2.13-25.94,1.79-29.33C374.85,99.55,385.82,101.88,388.79,109.43Z" style="fill: rgb(255, 196, 192); transform-origin: 377.257px 119.974px;" id="elb5dd5onefrv" class="animable"></path><path d="M375.05,119.83s.08.06.07.1c-.13,1-.11,2.24.79,2.67,0,0,0,.07,0,.06C374.77,122.39,374.76,120.79,375.05,119.83Z" style="fill: rgb(38, 50, 56); transform-origin: 375.4px 121.245px;" id="elin7pvexvvm" class="animable"></path><path d="M376.08,118.84c1.68,0,1.48,3.39-.07,3.35S374.68,118.81,376.08,118.84Z" style="fill: rgb(38, 50, 56); transform-origin: 376.097px 120.515px;" id="elba8oaet010k" class="animable"></path><path d="M369.24,119.53s-.08,0-.08.08c0,1-.24,2.23-1.19,2.52,0,0,0,.06,0,.06C369.13,122.09,369.38,120.52,369.24,119.53Z" style="fill: rgb(38, 50, 56); transform-origin: 368.623px 120.86px;" id="el1wi8b2e92su" class="animable"></path><path d="M368.38,118.39c-1.66-.22-2,3.12-.45,3.32S369.77,118.58,368.38,118.39Z" style="fill: rgb(38, 50, 56); transform-origin: 368.104px 120.049px;" id="el6okvjuzq08m" class="animable"></path><path d="M377.49,117.39c-.45-.14-.84-.35-1.27-.53a2.23,2.23,0,0,1-1.19-.79.7.7,0,0,1,.16-.85,1.75,1.75,0,0,1,1.78-.08,2.51,2.51,0,0,1,1.42,1.2A.76.76,0,0,1,377.49,117.39Z" style="fill: rgb(38, 50, 56); transform-origin: 376.706px 116.177px;" id="el23ir0xrpkv8" class="animable"></path><path d="M367.18,116.63a12.4,12.4,0,0,0,1.35-.27,2.22,2.22,0,0,0,1.33-.54.71.71,0,0,0,0-.86,1.76,1.76,0,0,0-1.73-.43,2.53,2.53,0,0,0-1.63.89A.75.75,0,0,0,367.18,116.63Z" style="fill: rgb(38, 50, 56); transform-origin: 368.171px 115.547px;" id="elbkzjt8yy3m" class="animable"></path><path d="M376.23,129.57c-.27.23-.53.55-.91.56a2.8,2.8,0,0,1-1.1-.32s-.07,0-.05.05a1.42,1.42,0,0,0,1.28.64,1.11,1.11,0,0,0,.87-.87C376.34,129.57,376.26,129.54,376.23,129.57Z" style="fill: rgb(38, 50, 56); transform-origin: 375.245px 130.031px;" id="ell0b5odvwb8j" class="animable"></path><path d="M375.31,126.4a3.53,3.53,0,0,1-2.44,1.44,4.23,4.23,0,0,1-1.28,0,.93.93,0,0,1-.24,0,1,1,0,0,1-.22,0,.25.25,0,0,1-.2-.24h0a.3.3,0,0,1,0-.1h0v-.09c0-.8.18-2,.18-2-.3.13-1.83.71-1.78.29a52.92,52.92,0,0,1,2-10.61c0-.11.2-.07.19,0-.26,3.32-1.11,6.58-1.42,9.92a5.67,5.67,0,0,1,1.7-.41c.11,0-.33,2.33-.31,2.69a0,0,0,0,0,0,0,4.92,4.92,0,0,0,3.72-.92C375.3,126.25,375.38,126.33,375.31,126.4Z" style="fill: rgb(38, 50, 56); transform-origin: 372.333px 121.455px;" id="elumguj6rlvr" class="animable"></path><path d="M372.09,127.45a4.18,4.18,0,0,0,1.6,1.39,1.84,1.84,0,0,0,1.14.14c.84-.17.91-.93.79-1.59a4.39,4.39,0,0,0-.31-1A5.47,5.47,0,0,1,372.09,127.45Z" style="fill: rgb(38, 50, 56); transform-origin: 373.878px 127.702px;" id="eliax1pxrfp7q" class="animable"></path><path d="M373.69,128.84a1.84,1.84,0,0,0,1.14.14c.84-.17.91-.93.79-1.59A1.94,1.94,0,0,0,373.69,128.84Z" style="fill: rgb(255, 152, 185); transform-origin: 374.678px 128.202px;" id="elgaa1m17wpxr" class="animable"></path><path d="M367.2,110.53c5.08,3.49,12-1.77,12-1.77a5.54,5.54,0,0,0,5.61,3.5s1,8.61,3.26,8.59c3.46,0,4.54-11.75,3.45-14.06s-4-2.9-4-2.9a5.67,5.67,0,0,0-2.35-3.42c-2.36-1.81-10.51.62-10.51.62a7.61,7.61,0,0,0-2.08-2.82,2.14,2.14,0,0,0-3.08.28,5.07,5.07,0,0,1,.83,2.12c.4,2.52-1.65,2.52-1.63.23a3.56,3.56,0,0,1,.8-2.35c-1-1.5-2.67-2-3.68-1.19C364,98.81,363,107.63,367.2,110.53Z" style="fill: rgb(38, 50, 56); transform-origin: 378.089px 108.912px;" id="eldl8xglrjyfh" class="animable"></path><path d="M386.53,122s3.14-5.1,5.43-4,.14,8.34-2.41,9.47a2.66,2.66,0,0,1-3.64-1.22Z" style="fill: rgb(255, 196, 192); transform-origin: 389.421px 122.809px;" id="elfeubj021myk" class="animable"></path><path d="M391.29,120.07s.06.05,0,.07c-1.78.85-2.65,2.6-3.22,4.4a1.47,1.47,0,0,1,2.17-.53.06.06,0,0,1,0,.1,1.66,1.66,0,0,0-1.77.68,8.5,8.5,0,0,0-.77,1.5c-.08.17-.38.1-.33-.09l0,0C387.18,123.83,388.8,120.45,391.29,120.07Z" style="fill: rgb(38, 50, 56); transform-origin: 389.336px 123.228px;" id="elolicwiclxwa" class="animable"></path></g><g id="freepik--Plant--inject-82" class="animable" style="transform-origin: 80.075px 330.822px;"><path d="M86.66,358.53a275.64,275.64,0,0,0-.4-29,369.68,369.68,0,0,0-9.1-59.16c-2.53-10.94-5.66-21.7-8.91-32.45-.1-.33-.62-.24-.53.1,10.07,37.9,18.32,77,17.75,116.4-.15,11-1.43,21.85-2.48,32.81,0,.29.46.41.52.11C85.59,377.93,86.27,368.11,86.66,358.53Z" style="fill: rgb(0, 136, 122); transform-origin: 77.2887px 312.614px;" id="elthfsjsjtw6r" class="animable"></path><path d="M67.72,238s-15.24,38.7-11.83,47.8,10.45,11,10.45,11S57,310.14,63.53,322.63s21,11.9,22,26.06C85.49,348.69,86.3,289.48,67.72,238Z" style="fill: rgb(0, 136, 122); transform-origin: 70.4613px 293.345px;" id="elfkohkqcfld9" class="animable"></path><path d="M83.84,324.24a.28.28,0,0,0,0-.2A354.44,354.44,0,0,0,69,246.19c0-.07-.14-.05-.12,0q4.53,17,8,34.14a16.89,16.89,0,0,0-7.27-4.06c-.06,0-.08.06,0,.08a19.24,19.24,0,0,1,7.51,5c.45,2.25.88,4.49,1.3,6.74-3.41-3.81-8.13-5.7-12.86-7.5a.06.06,0,0,0,0,.11c4.92,2,9.83,4.58,13.17,8.83q1.74,9.63,3.06,19.33a18.48,18.48,0,0,0-9.09-5.21c-.11,0-.17.13-.06.16a19.16,19.16,0,0,1,9.22,5.91l.06,0q.45,3.4.86,6.83a23.37,23.37,0,0,0-6.37-3.84,0,0,0,1,0,0,.09,21.84,21.84,0,0,1,6.38,4.23l.09,0c.25,2.17.5,4.34.72,6.51a31.06,31.06,0,0,0-12.93-9.24.09.09,0,0,0-.06.16,33.64,33.64,0,0,1,12.75,9.81.29.29,0,0,0,.32.1q.5,5,.87,10c0,.05.08.05.08,0Q84.25,329.37,83.84,324.24Z" style="fill: rgb(38, 50, 56); transform-origin: 75.077px 290.276px;" id="elsxwjvc8c56o" class="animable"></path><path d="M71.59,272.46a19.15,19.15,0,0,0-9.16-2.86.06.06,0,0,0,0,.12,36.57,36.57,0,0,1,9.06,3C71.61,272.73,71.7,272.54,71.59,272.46Z" style="fill: rgb(38, 50, 56); transform-origin: 67.0055px 271.16px;" id="el2la9p2eikf5" class="animable"></path><path d="M73.44,313.43a19.06,19.06,0,0,0-6.88-2.35c-.08,0-.09.11,0,.13a25.93,25.93,0,0,1,6.8,2.38C73.45,313.64,73.53,313.48,73.44,313.43Z" style="fill: rgb(38, 50, 56); transform-origin: 69.9878px 312.34px;" id="elu8mc2o4434" class="animable"></path><path d="M126.74,286.42a103.7,103.7,0,0,0-17.65,15.42,63.39,63.39,0,0,0-12.38,21A156.93,156.93,0,0,0,87.49,373a122.33,122.33,0,0,0,2.72,28.23.27.27,0,0,0,.53-.1A158,158,0,0,1,91,351.81c2.62-16,6.73-33.42,16.91-46.43,5.54-7.09,12.45-12.66,19.28-18.42C127.56,286.66,127.11,286.16,126.74,286.42Z" style="fill: rgb(0, 136, 122); transform-origin: 107.397px 343.892px;" id="ellylbp8ld8i" class="animable"></path><path d="M89.74,361.5a94.44,94.44,0,0,1,12.86-16.44c7.63-7.63,14.05-13.05,15-18.09s-7.64-8.76-7.64-8.76,10.56,1.9,13.45-2.53,4.28-30.09,4.28-30.09-19.2,13.71-28.15,32.93S89.74,361.5,89.74,361.5Z" style="fill: rgb(0, 136, 122); transform-origin: 108.715px 323.545px;" id="elfp4sas0qvr" class="animable"></path><path d="M121.08,292.17c-8.07,7.93-16.21,16.39-21,26.82A102.83,102.83,0,0,0,95.88,330v0c-.25.76-.49,1.52-.73,2.28a.27.27,0,0,0,0,.12,215.94,215.94,0,0,0-5.46,23.71c0,.05.07.07.08,0,.83-4,1.74-8,2.76-12.07a.23.23,0,0,0,.11,0,17.3,17.3,0,0,1,5-1.28c.12,0,.11-.21,0-.2a18.7,18.7,0,0,0-5,.91c.93-3.63,1.94-7.26,3.08-10.83a53.23,53.23,0,0,1,11.38-1.49s0-.06,0-.06a42.94,42.94,0,0,0-11.2.95l.61-1.83a58.82,58.82,0,0,1,7.58-1.29s0-.08,0-.08a37.07,37.07,0,0,0-7.42.9c1-3.09,2.18-6.14,3.43-9.1a55,55,0,0,1,3.63-7,45.65,45.65,0,0,1,6.14-1.1c.06,0,.05-.1,0-.1a16.67,16.67,0,0,0-5.75.57c1-1.63,2.07-3.23,3.21-4.78h0c4.3-.95,8.67-1.84,13.07-1,.08,0,.11-.11,0-.13-4.19-1.11-8.35-.47-12.53.35.46-.6.92-1.2,1.4-1.79a28.43,28.43,0,0,1,8-1.27,0,0,0,0,0,0-.09,21.07,21.07,0,0,0-7.5.67c3.56-4.42,7.49-8.58,11.38-12.69C121.42,292.09,121.28,292,121.08,292.17Z" style="fill: rgb(38, 50, 56); transform-origin: 105.495px 324.118px;" id="elozznlczx2gl" class="animable"></path><path d="M120.87,309.66a16.84,16.84,0,0,0-3.82-.13c-.15,0-.14.26,0,.27,1.27,0,2.53-.06,3.8,0A.08.08,0,0,0,120.87,309.66Z" style="fill: rgb(38, 50, 56); transform-origin: 118.922px 309.638px;" id="el1ejo1xa7tkw" class="animable"></path><path d="M107.05,334.55a17.2,17.2,0,0,0-5.92,1.18s0,.1,0,.09c2-.47,3.93-.66,5.9-1C107.23,334.81,107.22,334.55,107.05,334.55Z" style="fill: rgb(38, 50, 56); transform-origin: 104.154px 335.185px;" id="el0h1o2acan3hq" class="animable"></path><path d="M102.91,326a12.57,12.57,0,0,0-2.52.23.07.07,0,0,0,0,.14,12.46,12.46,0,0,0,2.52-.11A.13.13,0,0,0,102.91,326Z" style="fill: rgb(38, 50, 56); transform-origin: 101.68px 326.195px;" id="el417k9wbr3b3" class="animable"></path><path d="M33.45,313.64a87.15,87.15,0,0,1,17.85,8.41,53.3,53.3,0,0,1,14.86,14.12,132.23,132.23,0,0,1,19.07,38.49,103.06,103.06,0,0,1,4.32,23.48.23.23,0,0,1-.45,0,132.94,132.94,0,0,0-11.63-39.87C71.65,346,64.3,332.82,53.05,324.64c-6.12-4.45-13-7.37-19.85-10.45C32.83,314,33.09,313.52,33.45,313.64Z" style="fill: rgb(0, 136, 122); transform-origin: 61.2851px 355.972px;" id="elp6z1omfi2ir" class="animable"></path><path d="M80.75,365.85a80.28,80.28,0,0,0-14.21-10.33c-7.94-4.41-14.39-7.31-16.36-11.16s4.16-8.85,4.16-8.85-8.1,4-11.46,1.05-10.42-23.35-10.42-23.35,18.7,6.65,30.39,20.14S80.75,365.85,80.75,365.85Z" style="fill: rgb(0, 136, 122); transform-origin: 56.605px 339.53px;" id="elivkpdxdto8" class="animable"></path><path d="M79.77,361.64c-9.36-17.56-21.84-33.45-38.95-43.94h0a85.81,85.81,0,0,1,12.53,9.8,19.86,19.86,0,0,0-10.06,2.12.06.06,0,0,0,0,.11A27.5,27.5,0,0,1,53.68,328a.18.18,0,0,0,.11,0c.61.57,1.21,1.16,1.8,1.75a31.22,31.22,0,0,0-5.37.71s0,.08,0,.08a27.07,27.07,0,0,1,5.68-.47,115.1,115.1,0,0,1,8.82,10,8.79,8.79,0,0,0-3.75.27.07.07,0,0,0,0,.14,20,20,0,0,1,4-.05c.51.65,1,1.3,1.53,2a36,36,0,0,0-11.36,1.1,0,0,0,0,0,0,.09,45.62,45.62,0,0,1,11.66-.76c.48.63.93,1.28,1.4,1.92a24.51,24.51,0,0,0-6.76.78.07.07,0,1,0,0,.13,26,26,0,0,1,7-.54c2,2.77,3.94,5.61,5.8,8.47a6.36,6.36,0,0,0-3,.18s0,.09,0,.08a13.28,13.28,0,0,1,3.21.16q2.49,3.88,4.82,7.85C79.54,362,79.9,361.87,79.77,361.64Z" style="fill: rgb(38, 50, 56); transform-origin: 60.3087px 339.815px;" id="elmshb1d8qw6" class="animable"></path><path d="M65.22,347.07a14.35,14.35,0,0,0-5.44.67,0,0,0,1,0,0,.08,40.85,40.85,0,0,1,5.4-.56C65.32,347.26,65.34,347.08,65.22,347.07Z" style="fill: rgb(38, 50, 56); transform-origin: 62.5394px 347.428px;" id="el4ch6dfeft4f" class="animable"></path><path d="M48.9,325.67a9.19,9.19,0,0,0-2.51.14.08.08,0,0,0,0,.15c.82-.09,1.64-.06,2.46-.08A.11.11,0,0,0,48.9,325.67Z" style="fill: rgb(38, 50, 56); transform-origin: 47.6511px 325.8px;" id="eldqzybr5tof6" class="animable"></path><polygon points="104.88 423.93 62.65 423.93 68.67 379.82 70.21 368.51 97.32 368.51 98.85 379.82 104.88 423.93" style="fill: rgb(69, 90, 100); transform-origin: 83.765px 396.22px;" id="el8915mufx1lm" class="animable"></polygon><polygon points="98.85 379.82 68.67 379.82 70.21 368.51 97.32 368.51 98.85 379.82" style="fill: rgb(38, 50, 56); transform-origin: 83.76px 374.165px;" id="elto5dg99zkmf" class="animable"></polygon><rect x="66.33" y="364.59" width="34.86" height="9.58" style="fill: rgb(69, 90, 100); transform-origin: 83.76px 369.38px;" id="el4s5wexqzer" class="animable"></rect></g><defs>     <filter id="active" height="200%">         <feMorphology in="SourceAlpha" result="DILATED" operator="dilate" radius="2"></feMorphology>                <feFlood flood-color="#32DFEC" flood-opacity="1" result="PINK"></feFlood>        <feComposite in="PINK" in2="DILATED" operator="in" result="OUTLINE"></feComposite>        <feMerge>            <feMergeNode in="OUTLINE"></feMergeNode>            <feMergeNode in="SourceGraphic"></feMergeNode>        </feMerge>    </filter>    <filter id="hover" height="200%">        <feMorphology in="SourceAlpha" result="DILATED" operator="dilate" radius="2"></feMorphology>                <feFlood flood-color="#ff0000" flood-opacity="0.5" result="PINK"></feFlood>        <feComposite in="PINK" in2="DILATED" operator="in" result="OUTLINE"></feComposite>        <feMerge>            <feMergeNode in="OUTLINE"></feMergeNode>            <feMergeNode in="SourceGraphic"></feMergeNode>        </feMerge>            <feColorMatrix type="matrix" values="0   0   0   0   0                0   1   0   0   0                0   0   0   0   0                0   0   0   1   0 "></feColorMatrix>    </filter></defs></svg>