<?xml version="1.0" encoding="iso-8859-1"?>
<!-- Generator: Adobe Illustrator 19.0.0, SVG Export Plug-In . SVG Version: 6.00 Build 0)  -->
<svg version="1.1" id="Layer_1" xmlns="http://www.w3.org/2000/svg" xmlns:xlink="http://www.w3.org/1999/xlink" x="0px" y="0px"
	 viewBox="0 0 474.9 474.9" style="enable-background:new 0 0 474.9 474.9;" xml:space="preserve">
<g transform="translate(0 -540.36)">
	<g>
		<g>
			<path d="M459.954,540.36h-186.4c-1.8,0-3.5,0.6-4.9,1.8l-258.6,222.6c-1.6,1.3-2.5,3.3-2.6,5.4c-0.1,2.1,0.7,4.1,2.2,5.6
				l186.4,183.1c1.5,1.4,3.4,2.1,5.3,2.1v0c1.7,0,3.5-0.6,4.9-1.7l258.6-221.9c1.6-1.4,2.6-3.5,2.6-5.7v-183.8
				C467.454,543.76,464.054,540.36,459.954,540.36z M452.554,728.16l-250.8,215.1l-175.7-172.5v0l250.3-215.5h176.2V728.16z"/>
			<path d="M263.754,696.66c-0.1,0-0.1-0.1-0.2-0.1c-19.4-6.7-41.1-3.7-59.2,7.3l-7.9-7.8c-2.9-2.9-7.7-2.9-10.6,0s-2.9,7.7,0,10.6
				l6.4,6.4c-1.2,1.1-2.3,2.2-3.4,3.3l-0.1,0.1c-1.5,1.6-2.9,3.3-4.2,4.9l-6.7-6.7c-2.9-2.9-7.7-2.9-10.6,0c-2.9,2.9-2.9,7.7,0,10.6
				l9,9c-9.7,18.8-11,39.9-2.8,57.8c9.5,22,30.5,35.2,55,35.2c2.9,0,5.8-0.2,8.7-0.5c4.1-0.5,7-4.3,6.5-8.4c-0.5-4.1-4.3-7-8.4-6.5
				c-21.7,2.7-40.1-7.2-48.1-25.8c0-0.1-0.1-0.1-0.1-0.2c-5.7-12.3-5.4-26.8,0.4-40.3l38.8,38.7c1.5,1.5,3.4,2.2,5.3,2.2
				c1.9,0,3.8-0.7,5.3-2.2c2.9-2.9,2.9-7.7,0-10.6l-41.6-41.6c1.4-1.9,2.9-3.7,4.5-5.4c1-1.1,2.1-2.1,3.1-3l49,49
				c1.5,1.5,3.4,2.2,5.3,2.2c1.9,0,3.8-0.7,5.3-2.2c2.9-2.9,2.9-7.7,0-10.6l-47.2-47.1c13.5-7.2,29.2-8.9,43.2-4.1
				c19.3,7.4,30.5,25.9,28.5,47.3c-0.4,4.1,2.6,7.8,6.8,8.2c4.1,0.4,7.8-2.6,8.2-6.8C304.654,731.16,289.654,706.46,263.754,696.66
				L263.754,696.66z"/>
			<path d="M455.054,780.26l-253.3,217.3l-181.5-181.3c-2.9-2.9-7.7-2.9-10.6,0c-2.9,2.9-2.9,7.7,0,10.6l186.4,186.2
				c1.5,1.5,3.4,2.2,5.3,2.2h0c1.7,0,3.5-0.6,4.9-1.7l258.6-221.9c3.1-2.7,3.5-7.5,0.8-10.6S458.154,777.56,455.054,780.26z"/>
			<path d="M382.254,669.26c24.3,0,44-19.7,44-44s-19.7-44-44-44c-23.8,0-43.2,19.8-43.2,44
				C339.054,649.56,358.454,669.26,382.254,669.26z M382.254,596.36c16,0,29,13,29,29s-13,29-29,29c-15.5,0-28.2-13-28.2-29
				S366.654,596.36,382.254,596.36z"/>
		</g>
	</g>
</g>
<g>
</g>
<g>
</g>
<g>
</g>
<g>
</g>
<g>
</g>
<g>
</g>
<g>
</g>
<g>
</g>
<g>
</g>
<g>
</g>
<g>
</g>
<g>
</g>
<g>
</g>
<g>
</g>
<g>
</g>
</svg>
