<?xml version="1.0" encoding="iso-8859-1"?>
<!-- Generator: Adobe Illustrator 19.0.0, SVG Export Plug-In . SVG Version: 6.00 Build 0)  -->
<svg version="1.1" id="Layer_1" xmlns="http://www.w3.org/2000/svg" xmlns:xlink="http://www.w3.org/1999/xlink" x="0px" y="0px"
	 viewBox="0 0 474.006 474.006" style="enable-background:new 0 0 474.006 474.006;" xml:space="preserve">
<circle style="fill:#13B3CA;" cx="237.003" cy="237.003" r="237.003"/>
<path style="fill:#10ABB6;" d="M404.567,69.421c92.545,92.541,92.552,242.59-0.004,335.142
	c-92.545,92.549-242.601,92.549-335.142,0.007L404.567,69.421z"/>
<path style="fill:#0EA2A4;" d="M471.821,268.565l-64.048-64.048l-5.28,5.276l-80.684-80.68l-4.183,4.18l-9.684-9.684l-11.831,11.831
	l-9.586-9.583l-15.42,15.416l18.817,18.814l-72.257,72.265l-70.42-70.412l-15.416,15.412l20.295,20.292l-14.282,14.279l23.3,23.3
	l-10.271,10.271l28.385,28.389l-4.632,4.636l26.054,26.058l-30.604,30.608l-22.799-22.795l-22.02,22.02l-27.322-27.326l-5.493,5.497
	l160.787,160.787C365.993,465.726,457.071,379.242,471.821,268.565z"/>
<path style="fill:#FFFFFF;" d="M370.487,226.792c18.941-1.56,31.783-10.174,36.729-21.856c-6.836,4.198-28.044,8.774-39.756,4.412
	c-0.572-2.746-1.212-5.366-1.841-7.719c-8.924-32.774-39.479-59.168-71.494-55.984c2.589-1.044,5.224-2.021,7.839-2.892
	c3.521-1.265,24.198-4.632,20.946-11.929c-2.746-6.417-28.007,4.853-32.763,6.327c6.279-2.361,16.662-6.425,17.77-13.639
	c-9.62,1.317-19.061,5.867-26.353,12.483c2.63-2.84,4.629-6.294,5.055-10.013c-25.665,16.389-40.654,49.432-52.778,81.488
	c-9.523-9.227-17.964-16.497-25.541-20.531c-21.242-11.397-46.641-23.285-86.513-38.084c-1.224,13.19,6.522,30.735,28.845,42.398
	c-4.838-0.647-13.672,0.801-20.756,2.492c2.885,15.113,12.288,27.562,37.773,33.586c-11.644,0.767-17.661,3.416-23.113,9.126
	c5.295,10.511,18.237,22.881,41.504,20.34c-25.867,11.15-10.541,31.812,10.514,28.729c-35.921,37.103-92.556,34.379-125.076,3.349
	c84.908,115.699,269.485,68.422,296.98-43.019c20.61,0.172,32.725-7.139,40.235-15.199
	C396.817,232.674,379.609,230.593,370.487,226.792z"/>
<g>
</g>
<g>
</g>
<g>
</g>
<g>
</g>
<g>
</g>
<g>
</g>
<g>
</g>
<g>
</g>
<g>
</g>
<g>
</g>
<g>
</g>
<g>
</g>
<g>
</g>
<g>
</g>
<g>
</g>
</svg>
